<?xml version="1.0" encoding="UTF-8"?>
<svg version="1.1" xmlns="http://www.w3.org/2000/svg" width="500" height="500">
<path d="M0 0 C1.45672251 0.02919116 2.91305775 0.09194625 4.3671875 0.18359375 C5.12475342 0.20881104 5.88231934 0.23402832 6.6628418 0.26000977 C8.85976017 0.34422692 11.04878473 0.4724061 13.2421875 0.62109375 C14.29792969 0.69070312 15.35367188 0.7603125 16.44140625 0.83203125 C21.63298617 1.28212338 25.838534 1.68532475 30.2421875 4.62109375 C32.41640355 5.25256952 32.41640355 5.25256952 34.7421875 5.68359375 C38.09177509 6.35909391 41.16214675 7.08107337 44.2421875 8.62109375 C45.2321875 8.95109375 46.2221875 9.28109375 47.2421875 9.62109375 C48.2321875 10.61109375 48.2321875 10.61109375 49.2421875 11.62109375 C52.28589263 12.57929722 55.29979613 13.43261548 58.4296875 14.05859375 C60.78397431 14.78923449 62.3077877 16.10984391 64.2421875 17.62109375 C66.40873583 18.8092009 68.46211536 19.69619107 70.8046875 20.49609375 C75.4076711 22.62054772 77.12428551 27.11298386 79.3046875 31.49609375 C79.81128906 32.50414062 80.31789063 33.5121875 80.83984375 34.55078125 C82.2421875 37.62109375 82.2421875 37.62109375 83.24609375 40.92578125 C83.57480469 41.81523437 83.90351562 42.7046875 84.2421875 43.62109375 C87.10032184 44.96272401 87.10032184 44.96272401 90.2421875 45.62109375 C91.58940033 46.25924719 92.92965868 46.91434746 94.2421875 47.62109375 C94.2421875 47.95109375 94.2421875 48.28109375 94.2421875 48.62109375 C96.07393758 48.96302043 97.90770287 49.29415589 99.7421875 49.62109375 C101.27359375 49.89953125 101.27359375 49.89953125 102.8359375 50.18359375 C110.18857873 51.12796969 116.1319895 50.36086226 123.2421875 48.62109375 C136.61880868 45.62794277 148.42681481 45.88057279 161.62109375 49.6484375 C165.18722527 50.71096091 165.18722527 50.71096091 168.74609375 50.97265625 C173.13120051 51.78598331 175.97699084 53.57875829 179.6171875 56.05859375 C180.55884766 56.67057617 180.55884766 56.67057617 181.51953125 57.29492188 C186.0928357 60.32239016 186.0928357 60.32239016 187.2421875 62.62109375 C188.2321875 62.95109375 189.2221875 63.28109375 190.2421875 63.62109375 C190.5721875 64.61109375 190.9021875 65.60109375 191.2421875 66.62109375 C195.2794852 68.11296247 199.67491877 67.90672645 203.93359375 68.04296875 C205.22256813 68.08481293 205.22256813 68.08481293 206.5375824 68.12750244 C208.36408501 68.18388941 210.19067487 68.23750806 212.01733398 68.28857422 C213.84896679 68.34279966 215.68039048 68.40474122 217.51147461 68.47509766 C228.17252064 68.88465263 238.27995841 68.72031964 248.786026 66.70111084 C256.16821 65.29241532 263.141018 65.21333187 270.5546875 66.55859375 C272.03388672 66.81962891 272.03388672 66.81962891 273.54296875 67.0859375 C274.43371094 67.26253906 275.32445312 67.43914062 276.2421875 67.62109375 C276.95761719 67.74613281 277.67304688 67.87117188 278.41015625 68 C282.45295556 69.37058655 283.96994592 72.78103189 285.9921875 76.30859375 C288.33152859 79.94622361 288.33152859 79.94622361 292.3046875 81.43359375 C298.07335071 80.66356857 303.74761856 78.47189592 309.2421875 76.62109375 C309.2421875 75.96109375 309.2421875 75.30109375 309.2421875 74.62109375 C310.05042969 74.29496094 310.85867188 73.96882813 311.69140625 73.6328125 C312.76003906 73.19582031 313.82867187 72.75882812 314.9296875 72.30859375 C315.98542969 71.87933594 317.04117187 71.45007813 318.12890625 71.0078125 C321.23707363 69.70154496 321.23707363 69.70154496 323.94140625 67.984375 C327.00446654 66.16942077 329.70964483 66.07690571 333.2421875 65.62109375 C335.01772363 65.11652511 336.78828026 64.59424616 338.5546875 64.05859375 C343.75181295 62.62687875 348.88657229 61.40120362 354.2421875 62.62109375 C356.9296875 65.24609375 356.9296875 65.24609375 358.2421875 68.62109375 C358.2421875 71.80859375 358.2421875 71.80859375 357.2421875 74.62109375 C355.2679377 76.59534355 353.88753062 77.46464693 351.1796875 78.12109375 C349.17845931 78.4625785 349.17845931 78.4625785 347.9296875 79.93359375 C344.69782348 83.16545777 340.55532403 85.18338157 336.2421875 86.62109375 C335.9121875 87.28109375 335.5821875 87.94109375 335.2421875 88.62109375 C333.7571875 89.11609375 333.7571875 89.11609375 332.2421875 89.62109375 C331.8090625 90.11609375 331.3759375 90.61109375 330.9296875 91.12109375 C329.2421875 92.62109375 329.2421875 92.62109375 326.5546875 93.05859375 C322.85321755 93.68714525 320.24330995 95.00226544 316.9765625 96.78125 C315.2421875 97.62109375 315.2421875 97.62109375 313.2421875 97.62109375 C313.2421875 98.28109375 313.2421875 98.94109375 313.2421875 99.62109375 C313.79261719 99.4509375 314.34304688 99.28078125 314.91015625 99.10546875 C322.53684241 96.88249666 330.24876269 95.42686535 338.06713867 94.06738281 C339.39128784 93.82906738 339.39128784 93.82906738 340.7421875 93.5859375 C341.53625 93.44792725 342.3303125 93.30991699 343.1484375 93.16772461 C345.52354044 92.66934934 345.52354044 92.66934934 348.2421875 90.62109375 C351.37815505 88.73951322 353.59648048 88.41855447 357.2421875 88.62109375 C357.2421875 87.96109375 357.2421875 87.30109375 357.2421875 86.62109375 C358.8921875 86.62109375 360.5421875 86.62109375 362.2421875 86.62109375 C362.2421875 85.96109375 362.2421875 85.30109375 362.2421875 84.62109375 C379.39112367 75.47215758 379.39112367 75.47215758 388.2421875 74.62109375 C388.2421875 73.96109375 388.2421875 73.30109375 388.2421875 72.62109375 C391.15984641 72.51303231 394.07349875 72.43376498 396.9921875 72.37109375 C397.8171875 72.33757812 398.6421875 72.3040625 399.4921875 72.26953125 C405.63742979 72.17041444 405.63742979 72.17041444 408.6953125 74.44921875 C412.26315302 79.45861099 412.26315302 79.45861099 411.9921875 81.55859375 C411.7446875 82.23921875 411.4971875 82.91984375 411.2421875 83.62109375 C411.01273437 84.25660156 410.78328125 84.89210938 410.546875 85.546875 C408.74149433 88.41710594 406.61309501 89.33830386 403.6171875 90.87109375 C402.61429687 91.391875 401.61140625 91.91265625 400.578125 92.44921875 C399.80726563 92.8359375 399.03640625 93.22265625 398.2421875 93.62109375 C403.14512829 94.75833501 406.67611367 94.30481858 411.5546875 93.18359375 C420.15885864 91.34522622 428.48176441 91.32835684 437.2421875 91.62109375 C437.9021875 92.94109375 438.5621875 94.26109375 439.2421875 95.62109375 C439.9021875 95.62109375 440.5621875 95.62109375 441.2421875 95.62109375 C441.3659375 96.36359375 441.4896875 97.10609375 441.6171875 97.87109375 C442.11108206 100.59646647 442.11108206 100.59646647 443.3671875 102.74609375 C444.2421875 104.62109375 444.2421875 104.62109375 443.2421875 107.62109375 C439.7771875 108.11609375 439.7771875 108.11609375 436.2421875 108.62109375 C436.2421875 109.28109375 436.2421875 109.94109375 436.2421875 110.62109375 C435.5821875 110.95109375 434.9221875 111.28109375 434.2421875 111.62109375 C434.6340625 112.01296875 435.0259375 112.40484375 435.4296875 112.80859375 C436.0278125 113.40671875 436.6259375 114.00484375 437.2421875 114.62109375 C438.1084375 115.44609375 438.9746875 116.27109375 439.8671875 117.12109375 C442.86932598 120.28123952 443.72137727 123.35044983 444.2421875 127.62109375 C443.3046875 129.93359375 443.3046875 129.93359375 442.2421875 131.62109375 C440.5921875 131.62109375 438.9421875 131.62109375 437.2421875 131.62109375 C437.2421875 132.28109375 437.2421875 132.94109375 437.2421875 133.62109375 C436.32308594 133.55921875 435.40398437 133.49734375 434.45703125 133.43359375 C429.0275269 133.43359375 423.98028543 135.12599584 418.8046875 136.62109375 C417.78697266 136.90726563 416.76925781 137.1934375 415.72070312 137.48828125 C413.22545947 138.19116679 410.73287893 138.90227581 408.2421875 139.62109375 C408.2421875 140.28109375 408.2421875 140.94109375 408.2421875 141.62109375 C407.0665625 141.71519531 405.8909375 141.80929687 404.6796875 141.90625 C397.74393525 142.6782459 391.01557639 144.42731937 384.2421875 146.05859375 C382.91418288 146.37485487 381.58605842 146.6906132 380.2578125 147.00585938 C377.7223456 147.60790548 375.18717402 148.21119703 372.65234375 148.81591797 C368.52371433 149.79073325 364.38676014 150.71674073 360.2421875 151.62109375 C360.2421875 152.28109375 360.2421875 152.94109375 360.2421875 153.62109375 C353.78150335 154.35544316 347.40646571 154.77339041 340.90625 154.83203125 C339.12026967 154.85811087 337.33429981 154.88491503 335.54833984 154.91235352 C334.62253113 154.92565704 333.69672241 154.93896057 332.74285889 154.95266724 C317.6332406 155.18084284 302.66086867 155.74848236 287.6171875 157.18359375 C235.19946795 162.05354927 183.07747482 153.9082156 131.98388672 142.23193359 C128.46738197 141.44847011 124.93759197 140.74618555 121.40063477 140.06176758 C117.71609617 139.30952324 115.44039993 138.75323537 112.2421875 136.62109375 C109.91019362 136.54204311 107.57386128 136.53310606 105.2421875 136.62109375 C105.2421875 135.96109375 105.2421875 135.30109375 105.2421875 134.62109375 C103.5921875 134.62109375 101.9421875 134.62109375 100.2421875 134.62109375 C100.2421875 133.96109375 100.2421875 133.30109375 100.2421875 132.62109375 C97.6021875 132.29109375 94.9621875 131.96109375 92.2421875 131.62109375 C92.2421875 130.96109375 92.2421875 130.30109375 92.2421875 129.62109375 C90.5921875 129.62109375 88.9421875 129.62109375 87.2421875 129.62109375 C87.2421875 128.96109375 87.2421875 128.30109375 87.2421875 127.62109375 C86.39398438 127.51925781 85.54578125 127.41742188 84.671875 127.3125 C80.87915649 126.54790868 77.85130997 125.22955045 74.3671875 123.55859375 C73.21476562 123.01074219 72.06234375 122.46289062 70.875 121.8984375 C70.00617188 121.47691406 69.13734375 121.05539062 68.2421875 120.62109375 C68.2421875 119.96109375 68.2421875 119.30109375 68.2421875 118.62109375 C66.5921875 118.62109375 64.9421875 118.62109375 63.2421875 118.62109375 C63.2421875 117.96109375 63.2421875 117.30109375 63.2421875 116.62109375 C62.67371094 116.56050781 62.10523437 116.49992187 61.51953125 116.4375 C56.74437713 115.91932802 51.992957 115.32865516 47.2421875 114.62109375 C46.6853125 115.54921875 46.1284375 116.47734375 45.5546875 117.43359375 C42.39764777 121.78518905 40.08472788 123.28608641 34.8046875 124.24609375 C33.6290625 124.36984375 32.4534375 124.49359375 31.2421875 124.62109375 C29.92154297 124.87439453 29.92154297 124.87439453 28.57421875 125.1328125 C24.47992645 125.73279672 20.49966271 125.81237077 16.3671875 125.80859375 C15.53582275 125.80851318 14.70445801 125.80843262 13.84790039 125.80834961 C5.85561808 125.73601782 -1.85422033 124.75761469 -9.7578125 123.62109375 C-13.08817987 123.25285143 -16.42108737 122.92589076 -19.7578125 122.62109375 C-19.7578125 121.96109375 -19.7578125 121.30109375 -19.7578125 120.62109375 C-20.5003125 120.74484375 -21.2428125 120.86859375 -22.0078125 120.99609375 C-24.7578125 120.62109375 -24.7578125 120.62109375 -26.9453125 117.80859375 C-27.5434375 116.75671875 -28.1415625 115.70484375 -28.7578125 114.62109375 C-29.4178125 113.63109375 -30.0778125 112.64109375 -30.7578125 111.62109375 C-32.66010164 103.59206703 -31.30388503 95.41623546 -30.1953125 87.37109375 C-30.10611542 86.70512177 -30.01691833 86.03914978 -29.92501831 85.35299683 C-21.91613844 25.80334179 -21.91613844 25.80334179 -7.7578125 6.62109375 C-7.22542969 5.58597656 -6.69304688 4.55085937 -6.14453125 3.484375 C-3.7578125 0.62109375 -3.7578125 0.62109375 0 0 Z M197.2421875 69.62109375 C197.2421875 69.95109375 197.2421875 70.28109375 197.2421875 70.62109375 C208.7921875 70.62109375 220.3421875 70.62109375 232.2421875 70.62109375 C232.2421875 70.29109375 232.2421875 69.96109375 232.2421875 69.62109375 C220.6921875 69.62109375 209.1421875 69.62109375 197.2421875 69.62109375 Z M396.2421875 95.62109375 C400.2421875 96.62109375 400.2421875 96.62109375 400.2421875 96.62109375 Z M391.2421875 96.62109375 C391.2421875 96.95109375 391.2421875 97.28109375 391.2421875 97.62109375 C392.8921875 97.62109375 394.5421875 97.62109375 396.2421875 97.62109375 C396.2421875 97.29109375 396.2421875 96.96109375 396.2421875 96.62109375 C394.5921875 96.62109375 392.9421875 96.62109375 391.2421875 96.62109375 Z M50.2421875 112.62109375 C50.2421875 112.95109375 50.2421875 113.28109375 50.2421875 113.62109375 C51.8921875 113.62109375 53.5421875 113.62109375 55.2421875 113.62109375 C55.2421875 113.29109375 55.2421875 112.96109375 55.2421875 112.62109375 C53.5921875 112.62109375 51.9421875 112.62109375 50.2421875 112.62109375 Z M428.2421875 112.62109375 C428.2421875 112.95109375 428.2421875 113.28109375 428.2421875 113.62109375 C429.8921875 113.62109375 431.5421875 113.62109375 433.2421875 113.62109375 C433.2421875 113.29109375 433.2421875 112.96109375 433.2421875 112.62109375 C431.5921875 112.62109375 429.9421875 112.62109375 428.2421875 112.62109375 Z M350.2421875 152.62109375 C350.2421875 152.95109375 350.2421875 153.28109375 350.2421875 153.62109375 C351.8921875 153.62109375 353.5421875 153.62109375 355.2421875 153.62109375 C355.2421875 153.29109375 355.2421875 152.96109375 355.2421875 152.62109375 C353.5921875 152.62109375 351.9421875 152.62109375 350.2421875 152.62109375 Z " fill="#E3C6B3" transform="translate(42.7578125,218.37890625)"/>
<path d="M0 0 C1.15429504 -0.00307663 2.30859009 -0.00615326 3.49786377 -0.00932312 C4.72930115 -0.0021376 5.96073853 0.00504791 7.22949219 0.01245117 C8.50362976 0.01290939 9.77776733 0.01336761 11.09051514 0.01383972 C13.77695241 0.01685539 16.46304272 0.0236396 19.14941406 0.03710938 C22.59504399 0.05416695 26.04052739 0.05792139 29.48619461 0.05716419 C32.77564167 0.05750094 36.0650579 0.06633237 39.35449219 0.07495117 C40.59402649 0.076064 41.83356079 0.07717682 43.11065674 0.07832336 C44.25234314 0.08470322 45.39402954 0.09108307 46.5703125 0.09765625 C48.08205048 0.10337395 48.08205048 0.10337395 49.62432861 0.10920715 C52.02636719 0.24291992 52.02636719 0.24291992 54.02636719 1.24291992 C54.02636719 15.10291992 54.02636719 28.96291992 54.02636719 43.24291992 C67.88636719 43.24291992 81.74636719 43.24291992 96.02636719 43.24291992 C97.04071776 46.28597163 97.18904558 48.45263786 97.25097656 51.64135742 C97.28475403 53.29953491 97.28475403 53.29953491 97.31921387 54.99121094 C97.39045239 60.06674196 97.44778494 65.14212872 97.48632812 70.21801758 C97.50851347 72.88811252 97.55371708 75.55491042 97.609375 78.22485352 C97.68887642 82.08546182 97.72170697 85.94411067 97.74511719 89.80541992 C97.77810913 90.98604004 97.81110107 92.16666016 97.84509277 93.38305664 C97.82249188 102.85114304 94.74340672 109.52588039 88.02636719 116.24291992 C84.98535156 116.36230469 84.98535156 116.36230469 81.12011719 116.18432617 C80.43961304 116.15692856 79.75910889 116.12953094 79.0579834 116.1013031 C76.88023301 116.01242584 74.70342385 115.90983223 72.52636719 115.80541992 C70.3493025 115.70628787 68.17221715 115.61014395 65.99475098 115.52024841 C64.01866791 115.43791162 62.04300607 115.34564622 60.06738281 115.25292969 C57.10702151 115.01502808 57.10702151 115.01502808 55.02636719 116.24291992 C55.02636719 125.81291992 55.02636719 135.38291992 55.02636719 145.24291992 C54.03636719 145.57291992 53.04636719 145.90291992 52.02636719 146.24291992 C50.39322286 148.21415377 48.88514944 150.16562476 47.40136719 152.24291992 C43.04967227 158.21961484 43.04967227 158.21961484 42.02636719 159.24291992 C39.42314804 159.34557506 36.85244512 159.38036086 34.24902344 159.36401367 C33.447715 159.36114853 32.64640656 159.35828339 31.82081604 159.35533142 C23.223138 159.29021204 14.64524448 158.90264354 6.06079102 158.44335938 C3.40705332 158.30240217 0.7529281 158.17173953 -1.90136719 158.04174805 C-3.59345557 157.95445805 -5.2855143 157.86659083 -6.97753906 157.77807617 C-7.76898819 157.7394899 -8.56043732 157.70090363 -9.37586975 157.66114807 C-14.85863366 157.35791907 -14.85863366 157.35791907 -15.97363281 156.24291992 C-16.12983836 154.82964045 -16.22419454 153.40937402 -16.29003906 151.98901367 C-16.33193359 151.13500977 -16.37382812 150.28100586 -16.41699219 149.40112305 C-16.45630859 148.50329102 -16.495625 147.60545898 -16.53613281 146.68041992 C-16.57931641 145.7787207 -16.6225 144.87702148 -16.66699219 143.94799805 C-16.77341423 141.71313508 -16.87543269 139.47815684 -16.97363281 137.24291992 C-17.63363281 137.90291992 -18.29363281 138.56291992 -18.97363281 139.24291992 C-18.97363281 130.99291992 -18.97363281 122.74291992 -18.97363281 114.24291992 C-29.53363281 114.24291992 -40.09363281 114.24291992 -50.97363281 114.24291992 C-49.98363281 113.25291992 -49.98363281 113.25291992 -48.97363281 112.24291992 C-52.93363281 111.91291992 -56.89363281 111.58291992 -60.97363281 111.24291992 C-62.34108495 99.17716575 -62.53711066 87.07638946 -62.84765625 74.94702148 C-62.96019174 71.63812923 -63.15285187 68.34961549 -63.38769531 65.04760742 C-64.12650741 52.61278043 -64.12650741 52.61278043 -60.91894531 48.80151367 C-58.29783247 47.18762372 -55.88197152 46.22368816 -52.97363281 45.24291992 C-52.22533203 44.73535156 -51.47703125 44.2277832 -50.70605469 43.70483398 C-47.41098258 41.94188797 -45.29795918 41.89707642 -41.57910156 41.94995117 C-40.4952417 41.95744385 -39.41138184 41.96493652 -38.29467773 41.97265625 C-36.248573 42.01362427 -36.248573 42.01362427 -34.16113281 42.05541992 C-29.80925781 42.11729492 -25.45738281 42.17916992 -20.97363281 42.24291992 C-20.97363281 31.68291992 -20.97363281 21.12291992 -20.97363281 10.24291992 C-20.64363281 10.24291992 -20.31363281 10.24291992 -19.97363281 10.24291992 C-19.64363281 8.26291992 -19.31363281 6.28291992 -18.97363281 4.24291992 C-17.34602865 3.78719076 -15.71842448 3.33146159 -14.09082031 2.87573242 C-12.44603045 2.38411626 -10.8240028 1.81607817 -9.21466064 1.21855164 C-5.94622728 0.23467016 -3.39919552 -0.00479118 0 0 Z M-46.97363281 43.24291992 C-46.97363281 43.57291992 -46.97363281 43.90291992 -46.97363281 44.24291992 C-38.39363281 44.24291992 -29.81363281 44.24291992 -20.97363281 44.24291992 C-20.97363281 43.91291992 -20.97363281 43.58291992 -20.97363281 43.24291992 C-29.55363281 43.24291992 -38.13363281 43.24291992 -46.97363281 43.24291992 Z " fill="#ED3250" transform="translate(304.9736328125,107.757080078125)"/>
<path d="M0 0 C1.45672251 0.02919116 2.91305775 0.09194625 4.3671875 0.18359375 C5.12475342 0.20881104 5.88231934 0.23402832 6.6628418 0.26000977 C8.85976017 0.34422692 11.04878473 0.4724061 13.2421875 0.62109375 C14.29792969 0.69070312 15.35367188 0.7603125 16.44140625 0.83203125 C21.63298617 1.28212338 25.838534 1.68532475 30.2421875 4.62109375 C32.41640355 5.25256952 32.41640355 5.25256952 34.7421875 5.68359375 C38.09177509 6.35909391 41.16214675 7.08107337 44.2421875 8.62109375 C45.2321875 8.95109375 46.2221875 9.28109375 47.2421875 9.62109375 C48.2321875 10.61109375 48.2321875 10.61109375 49.2421875 11.62109375 C52.28589263 12.57929722 55.29979613 13.43261548 58.4296875 14.05859375 C60.78397431 14.78923449 62.3077877 16.10984391 64.2421875 17.62109375 C66.40873583 18.8092009 68.46211536 19.69619107 70.8046875 20.49609375 C75.40812691 22.62075809 77.19990255 27.19261977 79.4296875 31.55859375 C79.95949219 32.57824219 80.48929687 33.59789062 81.03515625 34.6484375 C82.2317742 37.59544805 82.50211958 39.48458002 82.2421875 42.62109375 C81.34113281 43.00007813 80.44007812 43.3790625 79.51171875 43.76953125 C65.99484445 51.4242486 58.09022703 75.46734339 52.8046875 89.05859375 C52.37937744 90.14809326 51.95406738 91.23759277 51.51586914 92.36010742 C49.11369581 98.71651551 47.30797305 104.9061753 46.2421875 111.62109375 C47.7271875 112.11609375 47.7271875 112.11609375 49.2421875 112.62109375 C47.93850403 114.3110538 46.59774043 115.9724483 45.2421875 117.62109375 C44.5203125 118.50796875 43.7984375 119.39484375 43.0546875 120.30859375 C39.3104298 123.38720564 35.94157375 123.91117005 31.2421875 124.62109375 C29.89060547 124.88599609 29.89060547 124.88599609 28.51171875 125.15625 C24.44163957 125.7349112 20.47323664 125.81234661 16.3671875 125.80859375 C15.53582275 125.80851318 14.70445801 125.80843262 13.84790039 125.80834961 C5.85561808 125.73601782 -1.85422033 124.75761469 -9.7578125 123.62109375 C-13.08817987 123.25285143 -16.42108737 122.92589076 -19.7578125 122.62109375 C-19.7578125 121.96109375 -19.7578125 121.30109375 -19.7578125 120.62109375 C-20.5003125 120.74484375 -21.2428125 120.86859375 -22.0078125 120.99609375 C-24.7578125 120.62109375 -24.7578125 120.62109375 -26.9453125 117.80859375 C-27.5434375 116.75671875 -28.1415625 115.70484375 -28.7578125 114.62109375 C-29.4178125 113.63109375 -30.0778125 112.64109375 -30.7578125 111.62109375 C-32.66010164 103.59206703 -31.30388503 95.41623546 -30.1953125 87.37109375 C-30.10611542 86.70512177 -30.01691833 86.03914978 -29.92501831 85.35299683 C-21.91613844 25.80334179 -21.91613844 25.80334179 -7.7578125 6.62109375 C-7.22542969 5.58597656 -6.69304688 4.55085937 -6.14453125 3.484375 C-3.7578125 0.62109375 -3.7578125 0.62109375 0 0 Z " fill="#2985EE" transform="translate(42.7578125,218.37890625)"/>
<path d="M0 0 C2.6875 2.625 2.6875 2.625 4 6 C4 9.1875 4 9.1875 3 12 C1.0257502 13.9742498 -0.35465688 14.84355318 -3.0625 15.5 C-5.06372819 15.84148475 -5.06372819 15.84148475 -6.3125 17.3125 C-9.54436402 20.54436402 -13.68686347 22.56228782 -18 24 C-18.33 24.66 -18.66 25.32 -19 26 C-20.485 26.495 -20.485 26.495 -22 27 C-22.433125 27.495 -22.86625 27.99 -23.3125 28.5 C-25 30 -25 30 -27.6875 30.4375 C-31.38896995 31.0660515 -33.99887755 32.38117169 -37.265625 34.16015625 C-39 35 -39 35 -41 35 C-41 35.66 -41 36.32 -41 37 C-40.44957031 36.82984375 -39.89914062 36.6596875 -39.33203125 36.484375 C-31.70534509 34.26140291 -23.99342481 32.8057716 -16.17504883 31.44628906 C-15.29228271 31.28741211 -14.4095166 31.12853516 -13.5 30.96484375 C-12.7059375 30.8268335 -11.911875 30.68882324 -11.09375 30.54663086 C-8.71864706 30.04825559 -8.71864706 30.04825559 -6 28 C-2.86403245 26.11841947 -0.64570702 25.79746072 3 26 C3 25.34 3 24.68 3 24 C4.65 24 6.3 24 8 24 C8 23.34 8 22.68 8 22 C25.14893617 12.85106383 25.14893617 12.85106383 34 12 C34 11.34 34 10.68 34 10 C36.91765891 9.89193856 39.83131125 9.81267123 42.75 9.75 C43.575 9.71648437 44.4 9.68296875 45.25 9.6484375 C51.39524229 9.54932069 51.39524229 9.54932069 54.453125 11.828125 C58.02096552 16.83751724 58.02096552 16.83751724 57.75 18.9375 C57.37875 19.9584375 57.37875 19.9584375 57 21 C56.77054688 21.63550781 56.54109375 22.27101563 56.3046875 22.92578125 C54.49930683 25.79601219 52.37090751 26.71721011 49.375 28.25 C48.37210938 28.77078125 47.36921875 29.2915625 46.3359375 29.828125 C45.56507813 30.21484375 44.79421875 30.6015625 44 31 C44.99 31.99 44.99 31.99 46 33 C45.20335937 33.09796875 44.40671875 33.1959375 43.5859375 33.296875 C42.52632813 33.44640625 41.46671875 33.5959375 40.375 33.75 C39.33085937 33.88921875 38.28671875 34.0284375 37.2109375 34.171875 C33.90265828 34.83629221 33.90265828 34.83629221 31.1328125 36.91796875 C27.36440937 39.42240624 23.83714291 40.4305743 19.5 41.5625 C13.55463405 43.14363334 13.55463405 43.14363334 7.9375 45.61328125 C4.34104281 47.31107687 1.46126859 47.47202418 -2.5 47.625 C-7.09662164 47.82119726 -11.47201765 48.19364698 -16 49 C-18.54238494 49.27159008 -21.08570929 49.49657277 -23.6328125 49.71875 C-25.8366046 49.98058668 -27.85472367 50.44860367 -30 51 C-31.3306173 51.18711806 -32.6642563 51.35390303 -34 51.5 C-36.74581407 51.82422897 -39.32628852 52.28701027 -42 53 C-47.30203462 54.00991136 -52.62452753 54.56767824 -58 55 C-58.75667969 55.07863281 -59.51335937 55.15726562 -60.29296875 55.23828125 C-66.72193276 55.63653566 -71.71200094 53.62746851 -77 50 C-78.8125 47.375 -78.8125 47.375 -80 45 C-82.58443323 43.26509754 -82.58443323 43.26509754 -85 42 C-85 41.67 -85 41.34 -85 41 C-84.26394531 40.89042969 -83.52789062 40.78085937 -82.76953125 40.66796875 C-75.37126892 39.62108176 -75.37126892 39.62108176 -69 36 C-66.25084444 32.1359476 -65.42629556 28.86178924 -64.8125 24.1875 C-64.57466797 22.44533203 -64.57466797 22.44533203 -64.33203125 20.66796875 C-64.16767578 19.34732422 -64.16767578 19.34732422 -64 18 C-63.38253906 17.96261719 -62.76507813 17.92523438 -62.12890625 17.88671875 C-56.0232776 17.41276584 -50.71266953 16.19399627 -45 14 C-45 13.34 -45 12.68 -45 12 C-44.19175781 11.67386719 -43.38351562 11.34773438 -42.55078125 11.01171875 C-41.48214844 10.57472656 -40.41351563 10.13773437 -39.3125 9.6875 C-38.25675781 9.25824219 -37.20101562 8.82898438 -36.11328125 8.38671875 C-33.00511387 7.08045121 -33.00511387 7.08045121 -30.30078125 5.36328125 C-27.23772096 3.54832702 -24.53254267 3.45581196 -21 3 C-19.22446387 2.49543136 -17.45390724 1.97315241 -15.6875 1.4375 C-10.49037455 0.005785 -5.35561521 -1.21989013 0 0 Z " fill="#CEA89B" transform="translate(397,281)"/>
<path d="M0 0 C0.99 0.33 1.98 0.66 3 1 C3 14.86 3 28.72 3 43 C16.86 43 30.72 43 45 43 C46.01435057 46.04305171 46.16267839 48.20971794 46.22460938 51.3984375 C46.24712769 52.50388916 46.269646 53.60934082 46.29284668 54.74829102 C46.3640852 59.82382204 46.42141775 64.89920879 46.45996094 69.97509766 C46.48214628 72.6451926 46.52734989 75.3119905 46.58300781 77.98193359 C46.66250924 81.84254189 46.69533978 85.70119075 46.71875 89.5625 C46.75174194 90.74312012 46.78473389 91.92374023 46.81872559 93.14013672 C46.7961247 102.60822312 43.71703954 109.28296046 37 116 C34.11083984 116.13525391 34.11083984 116.13525391 30.4609375 115.9765625 C29.15898437 115.925 27.85703125 115.8734375 26.515625 115.8203125 C25.13540621 115.75543042 23.75519798 115.69032333 22.375 115.625 C20.98701851 115.56676301 19.5989975 115.50945967 18.2109375 115.453125 C14.80679074 115.31128555 11.40334154 115.15983765 8 115 C8 114.67 8 114.34 8 114 C17.57 114 27.14 114 37 114 C37 94.53 37 75.06 37 55 C25.04843903 55.03950505 25.04843903 55.03950505 13.09692383 55.09008789 C11.59196036 55.09301015 10.08699609 55.09555798 8.58203125 55.09765625 C7.42205627 55.1053302 7.42205627 55.1053302 6.23864746 55.11315918 C2.3396164 55.11378694 -1.19636915 54.80329316 -5 54 C-6.9996441 53.96227087 -9.00054061 53.95350094 -11 54 C-11.20299536 47.39856569 -11.34299735 40.79793637 -11.43945312 34.1940918 C-11.4796629 31.94834318 -11.53424141 29.70280371 -11.60351562 27.45776367 C-11.70067801 24.22782865 -11.74595066 21.00066179 -11.78125 17.76953125 C-11.82254028 16.76727005 -11.86383057 15.76500885 -11.90637207 14.7323761 C-11.91073786 7.93641305 -11.91073786 7.93641305 -9.27124023 5.22250366 C-6.04324043 3.11003 -3.89862074 2 0 2 C0 1.34 0 0.68 0 0 Z " fill="#DA354B" transform="translate(356,108)"/>
<path d="M0 0 C2.6875 2.625 2.6875 2.625 4 6 C4 9.1875 4 9.1875 3 12 C1.0257502 13.9742498 -0.35465688 14.84355318 -3.0625 15.5 C-5.06372819 15.84148475 -5.06372819 15.84148475 -6.3125 17.3125 C-9.54436402 20.54436402 -13.68686347 22.56228782 -18 24 C-18.33 24.66 -18.66 25.32 -19 26 C-20.485 26.495 -20.485 26.495 -22 27 C-22.433125 27.495 -22.86625 27.99 -23.3125 28.5 C-25 30 -25 30 -27.6875 30.4375 C-31.38896995 31.0660515 -33.99887755 32.38117169 -37.265625 34.16015625 C-39 35 -39 35 -41 35 C-41.495 35.99 -41.495 35.99 -42 37 C-54.73592134 42.66848425 -69.05065815 45.65893707 -83 44 C-83.66 43.01 -84.32 42.02 -85 41 C-84.26394531 40.89042969 -83.52789062 40.78085937 -82.76953125 40.66796875 C-75.37126892 39.62108176 -75.37126892 39.62108176 -69 36 C-66.25084444 32.1359476 -65.42629556 28.86178924 -64.8125 24.1875 C-64.57466797 22.44533203 -64.57466797 22.44533203 -64.33203125 20.66796875 C-64.16767578 19.34732422 -64.16767578 19.34732422 -64 18 C-63.38253906 17.96261719 -62.76507813 17.92523438 -62.12890625 17.88671875 C-56.0232776 17.41276584 -50.71266953 16.19399627 -45 14 C-45 13.34 -45 12.68 -45 12 C-44.19175781 11.67386719 -43.38351562 11.34773438 -42.55078125 11.01171875 C-41.48214844 10.57472656 -40.41351563 10.13773437 -39.3125 9.6875 C-38.25675781 9.25824219 -37.20101562 8.82898438 -36.11328125 8.38671875 C-33.00511387 7.08045121 -33.00511387 7.08045121 -30.30078125 5.36328125 C-27.23772096 3.54832702 -24.53254267 3.45581196 -21 3 C-19.22446387 2.49543136 -17.45390724 1.97315241 -15.6875 1.4375 C-10.49037455 0.005785 -5.35561521 -1.21989013 0 0 Z " fill="#C9A295" transform="translate(397,281)"/>
<path d="M0 0 C0.33 0 0.66 0 1 0 C1.10152782 6.31699883 1.17151879 12.63378679 1.21972656 18.95141602 C1.23982586 21.0999335 1.26710993 23.2483964 1.30175781 25.39672852 C1.35034913 28.48727905 1.37298579 31.57710555 1.390625 34.66796875 C1.41127014 35.62648239 1.43191528 36.58499603 1.45318604 37.57255554 C1.45462864 41.87259783 1.4257375 44.30658758 -0.86425781 48.03637695 C-4.00377441 50.92288038 -6.96214836 52.65404945 -11 54 C-11.20299536 47.39856569 -11.34299735 40.79793637 -11.43945312 34.1940918 C-11.4796629 31.94834318 -11.53424141 29.70280371 -11.60351562 27.45776367 C-11.70067801 24.22782865 -11.74595066 21.00066179 -11.78125 17.76953125 C-11.82254028 16.76727005 -11.86383057 15.76500885 -11.90637207 14.7323761 C-11.91073786 7.93641305 -11.91073786 7.93641305 -9.27124023 5.22250366 C-6.04324043 3.11003 -3.89862074 2 0 2 C0 1.34 0 0.68 0 0 Z " fill="#DD3249" transform="translate(356,108)"/>
<path d="M0 0 C0.33 0 0.66 0 1 0 C1 13.86 1 27.72 1 42 C14.86 42 28.72 42 43 42 C43.495 44.475 43.495 44.475 44 47 C41.43046673 50.58727905 38.53247376 53.49009413 34.06964111 54.38867188 C28.41045047 54.92915909 22.73507814 54.68159086 17.0625 54.5 C15.34444684 54.47341629 13.62634243 54.44995282 11.90820312 54.4296875 C4.20079546 54.3084781 -3.34294098 53.92922021 -11 53 C-9.6875 51 -9.6875 51 -8 49 C-7.01 49 -6.02 49 -5 49 C-4.5978125 48.0409375 -4.5978125 48.0409375 -4.1875 47.0625 C-3 45 -3 45 0 44 C0 29.48 0 14.96 0 0 Z " fill="#DF4461" transform="translate(358,109)"/>
<path d="M0 0 C1.7115477 0.0001133 1.7115477 0.0001133 3.45767212 0.00022888 C4.69415497 0.00539017 5.93063782 0.01055145 7.20458984 0.01586914 C8.46693451 0.01728409 9.72927917 0.01869904 11.02987671 0.02015686 C14.38691033 0.02481461 17.74387635 0.03380131 21.10089111 0.04486084 C24.52607641 0.05508769 27.95126868 0.05965721 31.37646484 0.06469727 C38.09783777 0.07574301 44.81917865 0.09249346 51.54052734 0.11352539 C51.54052734 0.77352539 51.54052734 1.43352539 51.54052734 2.11352539 C43.58122387 7.15571348 36.94066492 7.79516528 27.65771484 7.60180664 C26.36229767 7.5947319 25.06688049 7.58765717 23.73220825 7.58036804 C20.3222038 7.56146321 16.91329912 7.51251264 13.50372314 7.45684814 C10.01093414 7.40529293 6.51796383 7.38277749 3.02490234 7.35766602 C-3.80366861 7.30437179 -10.63151754 7.21926657 -17.45947266 7.11352539 C-13.85009766 2.20727539 -13.85009766 2.20727539 -10.33447266 1.36352539 C-9.38572266 1.28102539 -8.43697266 1.19852539 -7.45947266 1.11352539 C-4.84425481 -0.19408353 -2.92833865 -0.00645009 0 0 Z " fill="#E24F70" transform="translate(304.45947265625,107.886474609375)"/>
<path d="M0 0 C0.99 0.495 0.99 0.495 2 1 C1.67 1.99 1.34 2.98 1 4 C-0.32796291 4.35412344 -1.66216607 4.68521554 -3 5 C-3.433125 5.433125 -3.86625 5.86625 -4.3125 6.3125 C-7.54436402 9.54436402 -11.68686347 11.56228782 -16 13 C-16.33 13.66 -16.66 14.32 -17 15 C-17.99 15.33 -18.98 15.66 -20 16 C-20.433125 16.495 -20.86625 16.99 -21.3125 17.5 C-23 19 -23 19 -25.6875 19.4375 C-29.38896995 20.0660515 -31.99887755 21.38117169 -35.265625 23.16015625 C-37 24 -37 24 -39 24 C-39.33 24.66 -39.66 25.32 -40 26 C-52.73592134 31.66848425 -67.05065815 34.65893707 -81 33 C-81.66 32.01 -82.32 31.02 -83 30 C-80.77149723 29.66225668 -78.54216533 29.3299813 -76.3125 29 C-75.07113281 28.814375 -73.82976562 28.62875 -72.55078125 28.4375 C-69 28 -69 28 -66.29296875 28.0625 C-63.64455346 27.99031151 -62.29072415 27.28481734 -60 26 C-55.75497545 24.36005521 -51.71017382 23.09313755 -47.1875 22.5 C-43.7223115 21.95644102 -42.65708491 21.15888149 -40 19 C-38.31368165 18.28655762 -36.62647177 17.5748995 -34.9296875 16.88671875 C-32.06133343 15.56866941 -29.4931434 13.83768532 -26.84765625 12.125 C-25 11 -25 11 -22.3125 9.9375 C-19.84912932 9.09502933 -19.84912932 9.09502933 -17.8125 7 C-14.36007746 4.54494397 -11.49452376 4.18213931 -7.375 3.5078125 C-4.50621109 2.89442013 -2.43532193 1.59818001 0 0 Z " fill="#B18168" transform="translate(395,292)"/>
<path d="M0 0 C4.29 0 8.58 0 13 0 C12.67 5.94 12.34 11.88 12 18 C11.67 18 11.34 18 11 18 C11.020625 18.89460938 11.04125 19.78921875 11.0625 20.7109375 C10.89966751 30.25699237 8.78117695 35.29605741 2 42 C-0.66380466 38.07342289 -0.25324779 33.84612391 -0.1953125 29.296875 C-0.1924826 28.45908508 -0.18965271 27.62129517 -0.18673706 26.75811768 C-0.17556349 24.08859837 -0.15046421 21.4194175 -0.125 18.75 C-0.11496654 16.93750485 -0.10584133 15.12500444 -0.09765625 13.3125 C-0.0756334 8.87487007 -0.04112304 4.43749237 0 0 Z " fill="#D32837" transform="translate(346,221)"/>
<path d="M0 0 C0.33 0 0.66 0 1 0 C1 11.22 1 22.44 1 34 C1.66 34 2.32 34 3 34 C3 36.97 3 39.94 3 43 C-10.2 43 -23.4 43 -37 43 C-37 38 -37 38 -35.30908203 36.21240234 C-27.80750336 31.5701495 -21.54379359 31.26587486 -12.875 31.625 C-8.62625 31.74875 -4.3775 31.8725 0 32 C0 21.44 0 10.88 0 0 Z M-26 33 C-26 33.33 -26 33.66 -26 34 C-17.42 34 -8.84 34 0 34 C0 33.67 0 33.34 0 33 C-8.58 33 -17.16 33 -26 33 Z " fill="#DD4463" transform="translate(284,118)"/>
<path d="M0 0 C0.33 0.66 0.66 1.32 1 2 C1.66 1.67 2.32 1.34 3 1 C4.53541638 0.90427353 6.0748851 0.86925941 7.61328125 0.8671875 C8.53173828 0.86589844 9.45019531 0.86460937 10.39648438 0.86328125 C11.83991211 0.86908203 11.83991211 0.86908203 13.3125 0.875 C14.26318359 0.87113281 15.21386719 0.86726563 16.19335938 0.86328125 C17.11568359 0.86457031 18.03800781 0.86585938 18.98828125 0.8671875 C20.24958862 0.86887939 20.24958862 0.86887939 21.53637695 0.87060547 C24 1 24 1 26.44042969 1.50439453 C29.34408472 2.06662457 32.00821309 2.09596866 34.96484375 2.0625 C36.09470703 2.05476563 37.22457031 2.04703125 38.38867188 2.0390625 C40.75065152 2.01306382 43.11263068 1.9870223 45.47460938 1.9609375 C46.60576172 1.95320313 47.73691406 1.94546875 48.90234375 1.9375 C49.92835693 1.92589844 50.95437012 1.91429687 52.01147461 1.90234375 C55.08776054 2.00286776 57.97882353 2.42770294 61 3 C61 3.33 61 3.66 61 4 C60.40832031 4.06058594 59.81664062 4.12117188 59.20703125 4.18359375 C54.31546506 4.6771298 54.31546506 4.6771298 49.5 5.625 C47.05495092 5.99175736 45.35602724 5.84835316 42.92578125 5.51953125 C38.14707608 4.95372028 33.49116887 4.96569087 28.6875 5.0625 C18.3578832 5.18037315 8.24725145 4.22094911 -2 3 C-1.34 2.67 -0.68 2.34 0 2 C0 1.34 0 0.68 0 0 Z " fill="#CEA89F" transform="translate(330,339)"/>
<path d="M0 0 C0 0.66 0 1.32 0 2 C0.66 2.66 1.32 3.32 2 4 C1.20335937 4.09796875 0.40671875 4.1959375 -0.4140625 4.296875 C-1.47367187 4.44640625 -2.53328125 4.5959375 -3.625 4.75 C-5.19121094 4.95882813 -5.19121094 4.95882813 -6.7890625 5.171875 C-10.51535394 6.13291367 -12.81024142 7.86951206 -16 10 C-18.75896204 11.09985649 -21.57565437 11.90055571 -24.4375 12.6875 C-25.16259766 12.89955078 -25.88769531 13.11160156 -26.63476562 13.33007812 C-31.07778753 14.59552102 -35.41357104 15.45011194 -40 16 C-37.16155856 13.69131376 -34.55666259 12.30794764 -31.125 11.0625 C-26.98556265 9.46948038 -23.66431526 7.51921674 -20 5 C-6.06299213 -3.03149606 -6.06299213 -3.03149606 0 0 Z " fill="#C0957F" transform="translate(441,310)"/>
<path d="M0 0 C2.0625 1.6875 2.0625 1.6875 4 4 C3.75 6.75 3.75 6.75 3 9 C0.69 9.33 -1.62 9.66 -4 10 C-4 10.66 -4 11.32 -4 12 C-5.19625 12.103125 -6.3925 12.20625 -7.625 12.3125 C-11.80633291 12.76684956 -15.83426398 13.58069575 -19.9375 14.5 C-25.62285941 15.76547088 -31.19109469 16.61184734 -37 17 C-36 15 -36 15 -33.8203125 14.21875 C-32.93085938 13.9815625 -32.04140625 13.744375 -31.125 13.5 C-27.84478965 12.62017682 -25.87188369 11.91458912 -23 10 C-21.16847929 9.50603962 -19.31677614 9.08485446 -17.45703125 8.7109375 C-16.38388672 8.49179687 -15.31074219 8.27265625 -14.20507812 8.046875 C-12.52575195 7.71429688 -12.52575195 7.71429688 -10.8125 7.375 C-9.11577148 7.03082031 -9.11577148 7.03082031 -7.38476562 6.6796875 C-4.59098342 6.11385819 -1.79610486 5.55421718 1 5 C0.505 2.525 0.505 2.525 0 0 Z " fill="#C29B81" transform="translate(483,317)"/>
<path d="M0 0 C2.36585366 7.09756098 2.36585366 7.09756098 1.0625 10.3125 C0.5365625 11.1478125 0.5365625 11.1478125 0 12 C-1.65 12 -3.3 12 -5 12 C-5 12.66 -5 13.32 -5 14 C-5.928125 13.938125 -6.85625 13.87625 -7.8125 13.8125 C-12.25773793 13.78528426 -16.2270604 15.05381195 -20.44921875 16.34375 C-23 17 -23 17 -27 17 C-26.75390625 15.13671875 -26.75390625 15.13671875 -26 13 C-20.87514457 9.46755042 -15.07040331 8.48177804 -9 8 C-7.49910675 7.81978983 -5.99904924 7.63245544 -4.5 7.4375 C-3.345 7.293125 -2.19 7.14875 -1 7 C-1.20625 6.401875 -1.4125 5.80375 -1.625 5.1875 C-2 3 -2 3 0 0 Z " fill="#E4C4A9" transform="translate(485,338)"/>
<path d="M0 0 C0.66 0.66 1.32 1.32 2 2 C-7.238447 11.238447 -25.68138378 11.20026379 -37.9453125 11.36328125 C-39.45738281 11.18345703 -39.45738281 11.18345703 -41 11 C-41.66 10.01 -42.32 9.02 -43 8 C-35.40486829 6.75816825 -28.10768456 5.74507565 -20.40234375 6.125 C-17.59265752 5.97880494 -15.57888903 5.08473728 -13 4 C-11.00039988 3.960008 -8.99952758 3.95653201 -7 4 C-6.01 3.67 -5.02 3.34 -4 3 C-3.34 3 -2.68 3 -2 3 C-1.67 2.34 -1.34 1.68 -1 1 C-0.67 0.67 -0.34 0.34 0 0 Z " fill="#A47356" transform="translate(355,314)"/>
<path d="M0 0 C0.66 0.33 1.32 0.66 2 1 C1.67 1.99 1.34 2.98 1 4 C-0.32796291 4.35412344 -1.66216607 4.68521554 -3 5 C-3.433125 5.433125 -3.86625 5.86625 -4.3125 6.3125 C-7.54436402 9.54436402 -11.68686347 11.56228782 -16 13 C-16.33 13.66 -16.66 14.32 -17 15 C-19.70599842 15.47597366 -22.33595404 15.84093629 -25.0625 16.125 C-25.82111328 16.21136719 -26.57972656 16.29773438 -27.36132812 16.38671875 C-29.23996986 16.59939517 -31.11988636 16.80075459 -33 17 C-29.89236323 13.77560231 -26.71971609 11.64489353 -22.5 10.0625 C-19.87949214 9.11227017 -19.87949214 9.11227017 -17.8125 7 C-14.36007746 4.54494397 -11.49452376 4.18213931 -7.375 3.5078125 C-4.50621109 2.89442013 -2.43532193 1.59818001 0 0 Z " fill="#BB8F76" transform="translate(395,292)"/>
<path d="M0 0 C0.33 0 0.66 0 1 0 C1 11.22 1 22.44 1 34 C-6.26 34 -13.52 34 -21 34 C-17.04 34.33 -13.08 34.66 -9 35 C-9 35.33 -9 35.66 -9 36 C-10.16917969 36.04898438 -11.33835937 36.09796875 -12.54296875 36.1484375 C-14.09116804 36.22350171 -15.63934401 36.29904795 -17.1875 36.375 C-17.95642578 36.4059375 -18.72535156 36.436875 -19.51757812 36.46875 C-23.73897711 36.68616111 -27.14072328 37.09743072 -31 39 C-30.6875 36.625 -30.6875 36.625 -30 34 C-26.45986775 31.63991183 -24.98878045 31.76536356 -20.80078125 31.8046875 C-19.71192627 31.80968262 -18.62307129 31.81467773 -17.5012207 31.81982422 C-16.11894287 31.83803223 -14.73666504 31.85624023 -13.3125 31.875 C-6.7228125 31.936875 -6.7228125 31.936875 0 32 C0 21.44 0 10.88 0 0 Z " fill="#EF3C5C" transform="translate(284,118)"/>
<path d="M0 0 C2.36585366 7.09756098 2.36585366 7.09756098 1.0625 10.3125 C0.711875 10.869375 0.36125 11.42625 0 12 C-1.65 12 -3.3 12 -5 12 C-5 12.66 -5 13.32 -5 14 C-9.75 13.25 -9.75 13.25 -12 11 C-10.58480285 8.9656541 -9.45017877 8.09589607 -7.01953125 7.578125 C-5.01823046 7.33726048 -3.0090056 7.16467259 -1 7 C-1.20625 6.401875 -1.4125 5.80375 -1.625 5.1875 C-2 3 -2 3 0 0 Z " fill="#D9B7A3" transform="translate(485,338)"/>
<path d="M0 0 C2.20192224 3.30288336 2.23959968 4.27462727 2.1953125 8.10546875 C2.18886719 9.08837891 2.18242187 10.07128906 2.17578125 11.08398438 C2.15902344 12.10814453 2.14226562 13.13230469 2.125 14.1875 C2.11597656 15.22326172 2.10695313 16.25902344 2.09765625 17.32617188 C2.0740786 19.88434685 2.0411703 22.44205748 2 25 C2.66 25 3.32 25 4 25 C3.67 26.32 3.34 27.64 3 29 C8.94 29 14.88 29 21 29 C21 29.33 21 29.66 21 30 C14.4 30 7.8 30 1 30 C-0.18451025 9.12300683 -0.18451025 9.12300683 0 0 Z " fill="#E8273E" transform="translate(288,234)"/>
<path d="M0 0 C0 0.99 0 1.98 0 3 C-2.24099569 4.22835325 -4.4901378 5.43229495 -6.75 6.625 C-7.70132812 7.1509375 -7.70132812 7.1509375 -8.671875 7.6875 C-10.546875 8.6640625 -10.546875 8.6640625 -14 10 C-16.453125 9.2109375 -16.453125 9.2109375 -18 8 C-13.49618278 3.9465645 -6.17442056 -2.05814019 0 0 Z " fill="#D7B2A9" transform="translate(426,295)"/>
<path d="M0 0 C0.66 0 1.32 0 2 0 C1.26718755 5.33906217 0.41072643 10.48544627 -1 15.6875 C-2.05785392 19.74131975 -2.35816901 23.72184454 -2.55859375 27.8984375 C-3 30 -3 30 -6 32 C-2.82242991 5.64485981 -2.82242991 5.64485981 0 0 Z " fill="#3094F5" transform="translate(20,266)"/>
<path d="M0 0 C1.12140434 3.31188082 0.87708979 5.07889197 -0.375 8.3125 C-1.80319656 12.25145308 -2.55749572 15.84045977 -3 20 C-2.01 20.33 -1.02 20.66 0 21 C-0.61875 21.763125 -1.2375 22.52625 -1.875 23.3125 C-4.05597052 25.99625809 -4.05597052 25.99625809 -6 29 C-6.66 28.67 -7.32 28.34 -8 28 C-7.45276317 24.62537285 -6.9451 22.91765 -5 20 C-4.69047191 18.08958582 -4.69047191 18.08958582 -4.625 16 C-4.12707861 10.29739086 -2.12076001 5.27724003 0 0 Z " fill="#225ACF" transform="translate(92,310)"/>
<path d="M0 0 C0.66 0.33 1.32 0.66 2 1 C3.05369598 8.80905799 3.1669647 14.27517406 -1.57666016 20.6340332 C-3.64632635 23.16555801 -5.77244061 25.60537365 -8 28 C-8.33 27.01 -8.66 26.02 -9 25 C-7.3828125 23.046875 -7.3828125 23.046875 -5.125 20.75 C0.39472025 14.26865601 0.17532551 8.2183832 0 0 Z " fill="#DB3244" transform="translate(356,238)"/>
<path d="M0 0 C0.33 0 0.66 0 1 0 C1 18.81 1 37.62 1 57 C0.67 57 0.34 57 0 57 C0 38.19 0 19.38 0 0 Z " fill="#DF4747" transform="translate(403,154)"/>
<path d="M0 0 C18.81 0 37.62 0 57 0 C57 0.33 57 0.66 57 1 C38.19 1 19.38 1 0 1 C0 0.67 0 0.34 0 0 Z " fill="#EB6374" transform="translate(299,106)"/>
<path d="M0 0 C2.0625 1.6875 2.0625 1.6875 4 4 C3.75 6.75 3.75 6.75 3 9 C0.69 9.33 -1.62 9.66 -4 10 C-4 10.66 -4 11.32 -4 12 C-5.65 11.67 -7.3 11.34 -9 11 C-8.67 10.34 -8.34 9.68 -8 9 C-8.66 8.34 -9.32 7.68 -10 7 C-4.555 6.01 -4.555 6.01 1 5 C0.67 3.35 0.34 1.7 0 0 Z " fill="#D3B0A1" transform="translate(483,317)"/>
<path d="M0 0 C2.625 2 2.625 2 4 4 C3.34 5.32 2.68 6.64 2 8 C1.360625 7.175 0.72125 6.35 0.0625 5.5 C-4.02384465 2.16420845 -6.92872936 2.5028166 -12 3 C-12.33 2.34 -12.66 1.68 -13 1 C-8.68284941 -0.4390502 -4.51173786 -0.56858235 0 0 Z " fill="#DBBCB5" transform="translate(449,291)"/>
<path d="M0 0 C0.495 1.485 0.495 1.485 1 3 C0.01 4.98 -0.98 6.96 -2 9 C-16.85 8.505 -16.85 8.505 -32 8 C-32 7.67 -32 7.34 -32 7 C-22.43 7 -12.86 7 -3 7 C-2.67 5.68 -2.34 4.36 -2 3 C-1.34 2.01 -0.68 1.02 0 0 Z " fill="#DC2D34" transform="translate(396,215)"/>
<path d="M0 0 C-2.72106694 2.72106694 -4.84776311 2.60655572 -8.625 3.125 C-10.40777344 3.37636719 -10.40777344 3.37636719 -12.2265625 3.6328125 C-13.14179688 3.75398438 -14.05703125 3.87515625 -15 4 C-15.66 3.01 -16.32 2.02 -17 1 C-5.47835991 -1.48063781 -5.47835991 -1.48063781 0 0 Z " fill="#B58374" transform="translate(329,321)"/>
<path d="M0 0 C-1.01953125 1.984375 -1.01953125 1.984375 -3 4 C-5.71229503 4.29642569 -7.99739732 4.38061189 -10.6875 4.25 C-11.7403418 4.22292969 -11.7403418 4.22292969 -12.81445312 4.1953125 C-14.54355436 4.14826213 -16.27195205 4.07651873 -18 4 C-13.39829283 -0.60170717 -6.11199681 -0.2182856 0 0 Z " fill="#C9A38E" transform="translate(476,325)"/>
<path d="M0 0 C0.66 0 1.32 0 2 0 C1.3125 2.875 1.3125 2.875 0 6 C-2.5 7.4375 -2.5 7.4375 -5 8 C-5.66 7.67 -6.32 7.34 -7 7 C-9.00800456 7.28112064 -11.01014051 7.61067967 -13 8 C-10.77547067 5.77547067 -8.76350755 4.7996763 -5.9375 3.4375 C-2.74843719 2.04103788 -2.74843719 2.04103788 0 0 Z " fill="#DBB499" transform="translate(453,299)"/>
<path d="M0 0 C6.27 0 12.54 0 19 0 C19 0.33 19 0.66 19 1 C13.00325593 2.74675802 7.72635779 3.25682842 1.5 3.125 C0.26636719 3.11146484 0.26636719 3.11146484 -0.9921875 3.09765625 C-2.99492083 3.07436865 -4.99750154 3.03850959 -7 3 C-7 2.34 -7 1.68 -7 1 C-4.69 1.33 -2.38 1.66 0 2 C0 1.34 0 0.68 0 0 Z " fill="#D1AEA5" transform="translate(398,339)"/>
<path d="M0 0 C0.99 0 1.98 0 3 0 C3 0.66 3 1.32 3 2 C2.01 1.67 1.02 1.34 0 1 C0 0.67 0 0.34 0 0 Z M-10 1 C-6.7 1 -3.4 1 0 1 C0 1.66 0 2.32 0 3 C-1.3921875 3.433125 -1.3921875 3.433125 -2.8125 3.875 C-6.84125058 5.29691197 -8.61549517 6.42324276 -11 10 C-10.67 7.03 -10.34 4.06 -10 1 Z " fill="#D7B7A9" transform="translate(343,298)"/>
<path d="M0 0 C11.88 0 23.76 0 36 0 C36 0.33 36 0.66 36 1 C24.12 1 12.24 1 0 1 C0 0.67 0 0.34 0 0 Z " fill="#F4E6D8" transform="translate(278,378)"/>
<path d="M0 0 C11.22 0 22.44 0 34 0 C34 0.33 34 0.66 34 1 C22.78 1 11.56 1 0 1 C0 0.67 0 0.34 0 0 Z " fill="#E8C2A8" transform="translate(351,374)"/>
<path d="M0 0 C10.23 0 20.46 0 31 0 C31 0.33 31 0.66 31 1 C20.77 1 10.54 1 0 1 C0 0.67 0 0.34 0 0 Z " fill="#EB1D2B" transform="translate(362,224)"/>
<path d="M0 0 C3.49873271 1.39655297 4.70891831 2.71260484 6.25 6.125 C6.58515625 6.84945312 6.9203125 7.57390625 7.265625 8.3203125 C7.62914063 9.15175781 7.62914063 9.15175781 8 10 C7.01 10 6.02 10 5 10 C3 7 3 7 3 4 C1.35 3.67 -0.3 3.34 -2 3 C-1.34 2.01 -0.68 1.02 0 0 Z " fill="#336EDD" transform="translate(114,240)"/>
<path d="M0 0 C0.33 0 0.66 0 1 0 C1 9.9 1 19.8 1 30 C0.67 30 0.34 30 0 30 C0 20.1 0 10.2 0 0 Z " fill="#ED1F34" transform="translate(241,180)"/>
<path d="M0 0 C2.25 0.875 2.25 0.875 4 2 C2.66666667 2.33333333 1.33333333 2.66666667 0 3 C-0.7321875 3.18820312 -1.464375 3.37640625 -2.21875 3.5703125 C-2.9715625 3.75335938 -3.724375 3.93640625 -4.5 4.125 C-5.2528125 4.31320312 -6.005625 4.50140625 -6.78125 4.6953125 C-9.16316419 5.02240635 -10.72956292 4.73273197 -13 4 C-9.49438137 1.66292091 -8.09054632 2 -4 2 C-3.29875 1.62875 -2.5975 1.2575 -1.875 0.875 C-1.25625 0.58625 -0.6375 0.2975 0 0 Z " fill="#1D62DC" transform="translate(77,339)"/>
<path d="M0 0 C0 0.33 0 0.66 0 1 C-2.72827365 1.50534727 -5.45744694 2.00443845 -8.1875 2.5 C-8.95642578 2.64308594 -9.72535156 2.78617187 -10.51757812 2.93359375 C-14.39421773 3.63238715 -18.041471 4.19039017 -22 4 C-18.75454527 1.10393633 -16.42926121 0.55892717 -12.125 0.3125 C-11.11695313 0.24675781 -10.10890625 0.18101562 -9.0703125 0.11328125 C-6.04355928 0.00160715 -3.02850692 -0.0226008 0 0 Z " fill="#BC7563" transform="translate(384,311)"/>
<path d="M0 0 C-0.33 0.99 -0.66 1.98 -1 3 C-4.0625 4.1875 -4.0625 4.1875 -7 5 C-7 4.34 -7 3.68 -7 3 C-8.98 3.33 -10.96 3.66 -13 4 C-10.56272708 2.37515139 -8.62713877 1.34310925 -5.9375 0.3125 C-5.24527344 0.04050781 -4.55304688 -0.23148437 -3.83984375 -0.51171875 C-2 -1 -2 -1 0 0 Z " fill="#CFA388" transform="translate(448,306)"/>
<path d="M0 0 C2.72757734 2.02368642 3.0996442 4.22571942 3.9375 7.4375 C0.82376628 5.93829488 -2.18478205 4.35597864 -5.0625 2.4375 C-5.0625 1.7775 -5.0625 1.1175 -5.0625 0.4375 C-2.0625 -0.5625 -2.0625 -0.5625 0 0 Z " fill="#DBB9B2" transform="translate(397.0625,281.5625)"/>
<path d="M0 0 C0.80824219 0.11085938 1.61648438 0.22171875 2.44921875 0.3359375 C3.37154297 0.47902344 3.37154297 0.47902344 4.3125 0.625 C3.9825 1.285 3.6525 1.945 3.3125 2.625 C0.80859375 3.0390625 0.80859375 3.0390625 -2.25 3.25 C-3.26191406 3.32476562 -4.27382813 3.39953125 -5.31640625 3.4765625 C-6.09886719 3.52554687 -6.88132812 3.57453125 -7.6875 3.625 C-7.6875 2.965 -7.6875 2.305 -7.6875 1.625 C-4.33422361 -0.61051759 -3.78006343 -0.54783528 0 0 Z " fill="#BB8E84" transform="translate(380.6875,326.375)"/>
<path d="M0 0 C0 0.66 0 1.32 0 2 C-3.4766338 4.14336161 -6.21229195 4.21277626 -10.25 4.125 C-11.32765625 4.10695313 -12.4053125 4.08890625 -13.515625 4.0703125 C-14.33546875 4.04710937 -15.1553125 4.02390625 -16 4 C-16 3.67 -16 3.34 -16 3 C-15.30132812 2.86722656 -14.60265625 2.73445313 -13.8828125 2.59765625 C-12.51769531 2.33275391 -12.51769531 2.33275391 -11.125 2.0625 C-10.22007812 1.88847656 -9.31515625 1.71445312 -8.3828125 1.53515625 C-1.54744526 0 -1.54744526 0 0 0 Z " fill="#A6735F" transform="translate(333,321)"/>
<path d="M0 0 C0.66 0.33 1.32 0.66 2 1 C1.75 2.875 1.75 2.875 1 5 C-1.58152302 6.72101535 -2.84918025 7 -6 7 C-6.33 6.01 -6.66 5.02 -7 4 C-1.7265625 0.77734375 -1.7265625 0.77734375 0 0 Z " fill="#D0CCC2" transform="translate(367,286)"/>
<path d="M0 0 C8.25 0 16.5 0 25 0 C25 0.33 25 0.66 25 1 C16.75 1 8.5 1 0 1 C0 0.67 0 0.34 0 0 Z " fill="#DC0718" transform="translate(303,267)"/>
<path d="M0 0 C0.66 0.33 1.32 0.66 2 1 C1.82374165 3.37948772 1.30280227 4.70225849 -0.40234375 6.37890625 C-1.90649092 7.62115486 -3.45129851 8.81376056 -5 10 C-4.38545304 6.00544473 -2.29353263 3.25533664 0 0 Z " fill="#3593F8" transform="translate(39,219)"/>
<path d="M0 0 C0.66 0.66 1.32 1.32 2 2 C-1.96 3.98 -1.96 3.98 -6 6 C-6.33 5.01 -6.66 4.02 -7 3 C-6.34 3 -5.68 3 -5 3 C-5 2.34 -5 1.68 -5 1 C-2.625 0.375 -2.625 0.375 0 0 Z " fill="#AD8163" transform="translate(363,310)"/>
<path d="M0 0 C1.65 0 3.3 0 5 0 C5.33 0.66 5.66 1.32 6 2 C5.21625 2.268125 4.4325 2.53625 3.625 2.8125 C0.71885077 3.84814432 0.71885077 3.84814432 -1 7 C-1.66 6.67 -2.32 6.34 -3 6 C-3 5.01 -3 4.02 -3 3 C-2.34 3 -1.68 3 -1 3 C-0.67 2.01 -0.34 1.02 0 0 Z " fill="#BD9F6F" transform="translate(379,300)"/>
<path d="M0 0 C0.7940625 -0.01675781 1.588125 -0.03351563 2.40625 -0.05078125 C3.0971875 0.06910156 3.788125 0.18898438 4.5 0.3125 C5.16 1.3025 5.82 2.2925 6.5 3.3125 C2.21 2.9825 -2.08 2.6525 -6.5 2.3125 C-4.07477793 -0.11272207 -3.3279321 0.01620746 0 0 Z " fill="#1E74D7" transform="translate(45.5,340.6875)"/>
<path d="M0 0 C2.97 0.33 5.94 0.66 9 1 C6 4 6 4 3 5 C2.34 4.34 1.68 3.68 1 3 C1.33 2.67 1.66 2.34 2 2 C1.34 1.34 0.68 0.68 0 0 Z " fill="#D1AA96" transform="translate(473,324)"/>
<path d="M0 0 C0 0.66 0 1.32 0 2 C-1.24420647 2.5345256 -2.49570936 3.05208611 -3.75 3.5625 C-4.44609375 3.85253906 -5.1421875 4.14257812 -5.859375 4.44140625 C-8.30012784 5.07831803 -9.6403655 4.80248831 -12 4 C-10.56570999 3.32645501 -9.12742943 2.66140299 -7.6875 2 C-6.88699219 1.62875 -6.08648437 1.2575 -5.26171875 0.875 C-3 0 -3 0 0 0 Z " fill="#B88D7F" transform="translate(413,321)"/>
<path d="M0 0 C2.3125 -0.3125 2.3125 -0.3125 5 0 C6.75 2.375 6.75 2.375 8 5 C8.33 5.66 8.66 6.32 9 7 C7.0625 6.625 7.0625 6.625 5 6 C4.67 5.34 4.34 4.68 4 4 C1.98330173 2.86649466 1.98330173 2.86649466 0 2 C0 1.34 0 0.68 0 0 Z " fill="#DDB1AB" transform="translate(227,281)"/>
<path d="M0 0 C6.93 0 13.86 0 21 0 C21 0.33 21 0.66 21 1 C14.07 1 7.14 1 0 1 C0 0.67 0 0.34 0 0 Z " fill="#0056D1" transform="translate(48,345)"/>
<path d="M0 0 C0.99 0.33 1.98 0.66 3 1 C-2.41538462 5.06153846 -2.41538462 5.06153846 -5.375 4.75 C-5.91125 4.5025 -6.4475 4.255 -7 4 C-2.25 1.125 -2.25 1.125 0 0 Z " fill="#C79E8A" transform="translate(431,310)"/>
<path d="M0 0 C-8.261959 4.59225513 -8.261959 4.59225513 -13 4 C-12 2 -12 2 -10.0390625 1.11328125 C-9.24242187 0.84902344 -8.44578125 0.58476562 -7.625 0.3125 C-6.83351563 0.04050781 -6.04203125 -0.23148437 -5.2265625 -0.51171875 C-3 -1 -3 -1 0 0 Z " fill="#C59A83" transform="translate(395,293)"/>
<path d="M0 0 C0 0.66 0 1.32 0 2 C-1.32 2.33 -2.64 2.66 -4 3 C-4.33 2.34 -4.66 1.68 -5 1 C-3 0 -3 0 0 0 Z M-9 1 C-7.68 1.33 -6.36 1.66 -5 2 C-5 2.66 -5 3.32 -5 4 C-6.32 4.33 -7.64 4.66 -9 5 C-9 3.68 -9 2.36 -9 1 Z " fill="#D9B8AE" transform="translate(379,284)"/>
<path d="M0 0 C0.33 0 0.66 0 1 0 C1.22786458 2.01822917 1.45572917 4.03645833 1.68359375 6.0546875 C1.91292961 8.07404316 1.91292961 8.07404316 3 10 C1.68 10 0.36 10 -1 10 C-1.125 3.375 -1.125 3.375 0 0 Z " fill="#CAA693" transform="translate(90,320)"/>
<path d="M0 0 C0.99 0.33 1.98 0.66 3 1 C2.34 1.66 1.68 2.32 1 3 C1 3.66 1 4.32 1 5 C-0.32 5.33 -1.64 5.66 -3 6 C-3.66 5.01 -4.32 4.02 -5 3 C-2.6875 1.4375 -2.6875 1.4375 0 0 Z " fill="#E0D5CC" transform="translate(413,299)"/>
<path d="M0 0 C2.125 0.9375 2.125 0.9375 4 2 C3.67 3.65 3.34 5.3 3 7 C1.2925002 5.71937515 -0.37373596 4.38232443 -2 3 C-2 2.34 -2 1.68 -2 1 C-1.34 0.67 -0.68 0.34 0 0 Z " fill="#DEB4AD" transform="translate(449,292)"/>
<path d="M0 0 C2.31 0 4.62 0 7 0 C7 0.99 7 1.98 7 3 C4.69 2.67 2.38 2.34 0 2 C0 1.34 0 0.68 0 0 Z " fill="#BF928A" transform="translate(337,333)"/>
<path d="M0 0 C6.27 0 12.54 0 19 0 C19 0.33 19 0.66 19 1 C12.73 1 6.46 1 0 1 C0 0.67 0 0.34 0 0 Z " fill="#D3061A" transform="translate(328,268)"/>
<path d="M0 0 C0.66 0.33 1.32 0.66 2 1 C1.67 2.32 1.34 3.64 1 5 C0.34 5 -0.32 5 -1 5 C-0.67 3.35 -0.34 1.7 0 0 Z M-2 5 C-1.01 5.495 -1.01 5.495 0 6 C0 6.66 0 7.32 0 8 C-0.66 8 -1.32 8 -2 8 C-2 7.01 -2 6.02 -2 5 Z M-3 8 C-2.01 8.495 -2.01 8.495 -1 9 C-1.33 9.66 -1.66 10.32 -2 11 C-2.33 10.01 -2.66 9.02 -3 8 Z " fill="#3395F7" transform="translate(29,235)"/>
<path d="M0 0 C0.33 0 0.66 0 1 0 C1 6.27 1 12.54 1 19 C0.67 19 0.34 19 0 19 C0 12.73 0 6.46 0 0 Z " fill="#EE1732" transform="translate(240,161)"/>
<path d="M0 0 C1.65 0.33 3.3 0.66 5 1 C5 1.66 5 2.32 5 3 C1.7 3.33 -1.6 3.66 -5 4 C-3.68 3.67 -2.36 3.34 -1 3 C-0.67 2.01 -0.34 1.02 0 0 Z " fill="#E1C1A5" transform="translate(424,361)"/>
<path d="M0 0 C1.32 0.33 2.64 0.66 4 1 C2 3 2 3 -0.1640625 3.1953125 C-1.38222656 3.16050781 -1.38222656 3.16050781 -2.625 3.125 C-3.44226563 3.10695313 -4.25953125 3.08890625 -5.1015625 3.0703125 C-5.72804688 3.04710937 -6.35453125 3.02390625 -7 3 C-7 2.34 -7 1.68 -7 1 C-4.69 1.33 -2.38 1.66 0 2 C0 1.34 0 0.68 0 0 Z " fill="#C8A39A" transform="translate(398,339)"/>
<path d="M0 0 C0.66 0.66 1.32 1.32 2 2 C1.01 2 0.02 2 -1 2 C-1 2.66 -1 3.32 -1 4 C-2.98 4.33 -4.96 4.66 -7 5 C-4.87219421 2.65941363 -2.88437779 1.29299694 0 0 Z " fill="#B68976" transform="translate(359,309)"/>
<path d="M0 0 C0.99 0.33 1.98 0.66 3 1 C3 1.99 3 2.98 3 4 C1.68 4.33 0.36 4.66 -1 5 C-0.67 3.35 -0.34 1.7 0 0 Z M3 1 C3.99 1 4.98 1 6 1 C6 1.66 6 2.32 6 3 C5.01 2.67 4.02 2.34 3 2 C3 1.67 3 1.34 3 1 Z " fill="#C4A09A" transform="translate(400,305)"/>
<path d="M0 0 C0.99 0.33 1.98 0.66 3 1 C1.87548273 3.9719385 0.77706209 6.33440687 -1 9 C-0.67 6.03 -0.34 3.06 0 0 Z " fill="#D7ABA3" transform="translate(333,299)"/>
<path d="M0 0 C0.33 0.66 0.66 1.32 1 2 C0.22265625 3.9453125 0.22265625 3.9453125 -0.9375 6.125 C-1.31777344 6.84945313 -1.69804688 7.57390625 -2.08984375 8.3203125 C-2.39019531 8.87460937 -2.69054687 9.42890625 -3 10 C-3.66 10 -4.32 10 -5 10 C-3.66511872 6.40608886 -2.03977277 3.24509304 0 0 Z " fill="#CFADAA" transform="translate(111,274)"/>
<path d="M0 0 C0 0.33 0 0.66 0 1 C-3.3 1.33 -6.6 1.66 -10 2 C-7.85732894 -2.28534211 -3.95706306 -0.79141261 0 0 Z " fill="#C8A495" transform="translate(456,332)"/>
<path d="M0 0 C0.33 0 0.66 0 1 0 C1 5.61 1 11.22 1 17 C0.67 17 0.34 17 0 17 C0 11.39 0 5.78 0 0 Z " fill="#FB223E" transform="translate(287,247)"/>
<path d="M0 0 C5.28 0 10.56 0 16 0 C16 0.33 16 0.66 16 1 C10.72 1 5.44 1 0 1 C0 0.67 0 0.34 0 0 Z " fill="#E5C093" transform="translate(334,375)"/>
<path d="M0 0 C5.28 0 10.56 0 16 0 C16 0.33 16 0.66 16 1 C10.72 1 5.44 1 0 1 C0 0.67 0 0.34 0 0 Z " fill="#E4A9A1" transform="translate(176,263)"/>
<path d="M0 0 C4.62 0 9.24 0 14 0 C14 0.33 14 0.66 14 1 C9.38 1 4.76 1 0 1 C0 0.67 0 0.34 0 0 Z " fill="#C6A8A3" transform="translate(462,308)"/>
<path d="M0 0 C-3.63423209 2.32590854 -6.77088331 2.16265833 -11 2 C-11 1.67 -11 1.34 -11 1 C-7.27569643 0.30710631 -3.78916254 -0.11144596 0 0 Z " fill="#C9B9A4" transform="translate(167,266)"/>
<path d="M0 0 C3.96 0 7.92 0 12 0 C12 0.33 12 0.66 12 1 C8.04 1 4.08 1 0 1 C0 0.67 0 0.34 0 0 Z " fill="#E90A42" transform="translate(290,266)"/>
<path d="M0 0 C3.96 0 7.92 0 12 0 C12 0.33 12 0.66 12 1 C8.04 1 4.08 1 0 1 C0 0.67 0 0.34 0 0 Z " fill="#347FF7" transform="translate(44,217)"/>
<path d="M0 0 C0 0.33 0 0.66 0 1 C-3.3 1.33 -6.6 1.66 -10 2 C-6.00889681 0.0044484 -4.30013434 -0.19546065 0 0 Z " fill="#C88981" transform="translate(462,309)"/>
<path d="M0 0 C3.3 0 6.6 0 10 0 C10 0.33 10 0.66 10 1 C6.7 1 3.4 1 0 1 C0 0.67 0 0.34 0 0 Z " fill="#F0BDA9" transform="translate(314,377)"/>
<path d="M0 0 C3.3 0 6.6 0 10 0 C10 0.33 10 0.66 10 1 C6.7 1 3.4 1 0 1 C0 0.67 0 0.34 0 0 Z " fill="#F8D6B6" transform="translate(267,377)"/>
<path d="M0 0 C-3.13498292 1.85776765 -5.37471432 2.20140476 -9 2 C-5.86501708 0.14223235 -3.62528568 -0.20140476 0 0 Z " fill="#D8CB85" transform="translate(421,367)"/>
<path d="M0 0 C-3.13498292 1.85776765 -5.37471432 2.20140476 -9 2 C-5.86501708 0.14223235 -3.62528568 -0.20140476 0 0 Z " fill="#F2AC85" transform="translate(430,365)"/>
<path d="M0 0 C-4.455 0.495 -4.455 0.495 -9 1 C-9 0.67 -9 0.34 -9 0 C-5.32431536 -0.91892116 -3.83619425 -0.95904856 0 0 Z " fill="#E59657" transform="translate(439,364)"/>
<path d="M0 0 C0.33 0 0.66 0 1 0 C1 3.3 1 6.6 1 10 C0.67 10 0.34 10 0 10 C0 6.7 0 3.4 0 0 Z " fill="#1D6EF8" transform="translate(10,309)"/>
<path d="M0 0 C3.3 0 6.6 0 10 0 C10 0.33 10 0.66 10 1 C6.7 1 3.4 1 0 1 C0 0.67 0 0.34 0 0 Z " fill="#E5B27F" transform="translate(297,282)"/>
<path d="M0 0 C3.3 0 6.6 0 10 0 C10 0.33 10 0.66 10 1 C6.7 1 3.4 1 0 1 C0 0.67 0 0.34 0 0 Z " fill="#F01D32" transform="translate(244,220)"/>
<path d="M0 0 C2.97 0 5.94 0 9 0 C9 0.33 9 0.66 9 1 C6.03 1 3.06 1 0 1 C0 0.67 0 0.34 0 0 Z " fill="#E2D4B0" transform="translate(324,376)"/>
<path d="M0 0 C2.64 0.33 5.28 0.66 8 1 C8 1.33 8 1.66 8 2 C5.36 1.67 2.72 1.34 0 1 C0 0.67 0 0.34 0 0 Z " fill="#F0AE8B" transform="translate(173,361)"/>
<path d="M0 0 C2.97 0 5.94 0 9 0 C9 0.33 9 0.66 9 1 C6.03 1 3.06 1 0 1 C0 0.67 0 0.34 0 0 Z " fill="#0767E9" transform="translate(39,344)"/>
<path d="M0 0 C2.64 0 5.28 0 8 0 C8 0.33 8 0.66 8 1 C5.36 1 2.72 1 0 1 C0 0.67 0 0.34 0 0 Z " fill="#F4B4A9" transform="translate(258,376)"/>
<path d="M0 0 C2.64 0 5.28 0 8 0 C8 0.33 8 0.66 8 1 C5.36 1 2.72 1 0 1 C0 0.67 0 0.34 0 0 Z " fill="#C4BFB4" transform="translate(250,375)"/>
<path d="M0 0 C2.64 0 5.28 0 8 0 C8 0.33 8 0.66 8 1 C5.36 1 2.72 1 0 1 C0 0.67 0 0.34 0 0 Z " fill="#F4C4B9" transform="translate(385,373)"/>
<path d="M0 0 C0.598125 0.20625 1.19625 0.4125 1.8125 0.625 C-0.4975 0.955 -2.8075 1.285 -5.1875 1.625 C-2.1875 -0.375 -2.1875 -0.375 0 0 Z " fill="#CCB777" transform="translate(389.1875,309.375)"/>
<path d="M0 0 C2.64 0 5.28 0 8 0 C8 0.33 8 0.66 8 1 C5.36 1 2.72 1 0 1 C0 0.67 0 0.34 0 0 Z " fill="#E4CCAC" transform="translate(289,283)"/>
<path d="M0 0 C2.64 0 5.28 0 8 0 C8 0.33 8 0.66 8 1 C5.36 1 2.72 1 0 1 C0 0.67 0 0.34 0 0 Z " fill="#C49C9C" transform="translate(142,267)"/>
<path d="M0 0 C0.33 0 0.66 0 1 0 C1 2.64 1 5.28 1 8 C0.67 8 0.34 8 0 8 C0 5.36 0 2.72 0 0 Z " fill="#FF1A44" transform="translate(242,211)"/>
<path d="M0 0 C2.31 0 4.62 0 7 0 C7 0.33 7 0.66 7 1 C4.69 1 2.38 1 0 1 C0 0.67 0 0.34 0 0 Z " fill="#F5E0BC" transform="translate(243,374)"/>
<path d="M0 0 C2.31 0 4.62 0 7 0 C7 0.33 7 0.66 7 1 C4.69 1 2.38 1 0 1 C0 0.67 0 0.34 0 0 Z " fill="#E0CEA9" transform="translate(236,373)"/>
<path d="M0 0 C2.31 0 4.62 0 7 0 C7 0.33 7 0.66 7 1 C4.69 1 2.38 1 0 1 C0 0.67 0 0.34 0 0 Z " fill="#E0A985" transform="translate(229,372)"/>
<path d="M0 0 C1.98 0.99 1.98 0.99 4 2 C3.67 2.66 3.34 3.32 3 4 C2.01 2.68 1.02 1.36 0 0 Z " fill="#B69148" transform="translate(480,333)"/>
<path d="M0 0 C0.33 0 0.66 0 1 0 C1 2.31 1 4.62 1 7 C0.67 7 0.34 7 0 7 C0 4.69 0 2.38 0 0 Z " fill="#0024DA" transform="translate(9,319)"/>
<path d="M0 0 C0.33 0 0.66 0 1 0 C1 2.31 1 4.62 1 7 C0.67 7 0.34 7 0 7 C0 4.69 0 2.38 0 0 Z " fill="#1E85FF" transform="translate(11,302)"/>
<path d="M0 0 C0.33 0 0.66 0 1 0 C1 2.31 1 4.62 1 7 C0.67 7 0.34 7 0 7 C0 4.69 0 2.38 0 0 Z " fill="#1E97F5" transform="translate(12,295)"/>
<path d="M0 0 C1.98 0 3.96 0 6 0 C6 0.33 6 0.66 6 1 C4.02 1 2.04 1 0 1 C0 0.67 0 0.34 0 0 Z " fill="#FFDF98" transform="translate(223,371)"/>
<path d="M0 0 C1.98 0 3.96 0 6 0 C6 0.33 6 0.66 6 1 C4.02 1 2.04 1 0 1 C0 0.67 0 0.34 0 0 Z " fill="#E9A9BF" transform="translate(217,370)"/>
<path d="M0 0 C1.98 0 3.96 0 6 0 C6 0.33 6 0.66 6 1 C4.02 1 2.04 1 0 1 C0 0.67 0 0.34 0 0 Z " fill="#E9A994" transform="translate(211,369)"/>
<path d="M0 0 C1.98 0 3.96 0 6 0 C6 0.33 6 0.66 6 1 C4.02 1 2.04 1 0 1 C0 0.67 0 0.34 0 0 Z " fill="#D49F8A" transform="translate(200,367)"/>
<path d="M0 0 C1.98 0 3.96 0 6 0 C6 0.33 6 0.66 6 1 C4.02 1 2.04 1 0 1 C0 0.67 0 0.34 0 0 Z " fill="#0A78D4" transform="translate(33,343)"/>
<path d="M0 0 C0.33 0 0.66 0 1 0 C1 1.98 1 3.96 1 6 C0.67 6 0.34 6 0 6 C0 4.02 0 2.04 0 0 Z " fill="#157FF4" transform="translate(13,289)"/>
<path d="M0 0 C1.98 0 3.96 0 6 0 C6 0.33 6 0.66 6 1 C4.02 1 2.04 1 0 1 C0 0.67 0 0.34 0 0 Z " fill="#D4AAAA" transform="translate(439,289)"/>
<path d="M0 0 C0.33 0 0.66 0 1 0 C1 1.98 1 3.96 1 6 C0.67 6 0.34 6 0 6 C0 4.02 0 2.04 0 0 Z " fill="#158DF4" transform="translate(14,283)"/>
<path d="M0 0 C1.98 0 3.96 0 6 0 C6 0.33 6 0.66 6 1 C4.02 1 2.04 1 0 1 C0 0.67 0 0.34 0 0 Z " fill="#C9947F" transform="translate(283,284)"/>
<path d="M0 0 C1.98 0 3.96 0 6 0 C6 0.33 6 0.66 6 1 C4.02 1 2.04 1 0 1 C0 0.67 0 0.34 0 0 Z " fill="#DFB4B4" transform="translate(307,283)"/>
<path d="M0 0 C0.33 0 0.66 0 1 0 C1 1.98 1 3.96 1 6 C0.67 6 0.34 6 0 6 C0 4.02 0 2.04 0 0 Z " fill="#156AF4" transform="translate(16,272)"/>
<path d="M0 0 C1.98 0 3.96 0 6 0 C6 0.33 6 0.66 6 1 C4.02 1 2.04 1 0 1 C0 0.67 0 0.34 0 0 Z " fill="#E2A9A9" transform="translate(150,268)"/>
<path d="M0 0 C1.98 0 3.96 0 6 0 C6 0.33 6 0.66 6 1 C4.02 1 2.04 1 0 1 C0 0.67 0 0.34 0 0 Z " fill="#BFBFBF" transform="translate(170,264)"/>
<path d="M0 0 C1.98 0 3.96 0 6 0 C6 0.33 6 0.66 6 1 C4.02 1 2.04 1 0 1 C0 0.67 0 0.34 0 0 Z " fill="#156AFF" transform="translate(56,218)"/>
<path d="M0 0 C1.65 0 3.3 0 5 0 C5 0.33 5 0.66 5 1 C3.35 1 1.7 1 0 1 C0 0.67 0 0.34 0 0 Z " fill="#BFBFAE" transform="translate(206,368)"/>
<path d="M0 0 C1.65 0 3.3 0 5 0 C5 0.33 5 0.66 5 1 C3.35 1 1.7 1 0 1 C0 0.67 0 0.34 0 0 Z " fill="#E58C94" transform="translate(195,366)"/>
<path d="M0 0 C1.65 0 3.3 0 5 0 C5 0.33 5 0.66 5 1 C3.35 1 1.7 1 0 1 C0 0.67 0 0.34 0 0 Z " fill="#FFC7AE" transform="translate(190,365)"/>
<path d="M0 0 C1.65 0 3.3 0 5 0 C5 0.33 5 0.66 5 1 C3.35 1 1.7 1 0 1 C0 0.67 0 0.34 0 0 Z " fill="#FFD8BF" transform="translate(185,364)"/>
<path d="M0 0 C1.65 0 3.3 0 5 0 C5 0.33 5 0.66 5 1 C3.35 1 1.7 1 0 1 C0 0.67 0 0.34 0 0 Z " fill="#006AF2" transform="translate(69,344)"/>
<path d="M0 0 C0.33 0 0.66 0 1 0 C1 1.65 1 3.3 1 5 C0.67 5 0.34 5 0 5 C0 3.35 0 1.7 0 0 Z " fill="#1D6EFF" transform="translate(15,278)"/>
<path d="M0 0 C1.65 0 3.3 0 5 0 C5 0.33 5 0.66 5 1 C3.35 1 1.7 1 0 1 C0 0.67 0 0.34 0 0 Z " fill="#7F7F7F" transform="translate(382,280)"/>
<path d="M0 0 C1.65 0 3.3 0 5 0 C5 0.33 5 0.66 5 1 C3.35 1 1.7 1 0 1 C0 0.67 0 0.34 0 0 Z " fill="#FFFFFF" transform="translate(387,279)"/>
<path d="M0 0 C0.33 0 0.66 0 1 0 C1 1.65 1 3.3 1 5 C0.67 5 0.34 5 0 5 C0 3.35 0 1.7 0 0 Z " fill="#1DA1FF" transform="translate(18,263)"/>
<path d="M0 0 C1.65 0 3.3 0 5 0 C5 0.33 5 0.66 5 1 C3.35 1 1.7 1 0 1 C0 0.67 0 0.34 0 0 Z " fill="#D4BABA" transform="translate(192,264)"/>
<path d="M0 0 C0.33 0 0.66 0 1 0 C1 1.65 1 3.3 1 5 C0.67 5 0.34 5 0 5 C0 3.35 0 1.7 0 0 Z " fill="#2243E1" transform="translate(126,256)"/>
<path d="M0 0 C4 1 4 1 4 1 Z " fill="#E9D9D9" transform="translate(403,370)"/>
<path d="M0 0 C4 1 4 1 4 1 Z " fill="#FF9AD9" transform="translate(408,369)"/>
<path d="M0 0 C4 1 4 1 4 1 Z " fill="#DFD97A" transform="translate(181,363)"/>
<path d="M0 0 C4 1 4 1 4 1 Z " fill="#FFD99A" transform="translate(165,359)"/>
<path d="M0 0 C4 1 4 1 4 1 Z " fill="#BF8FAF" transform="translate(454,357)"/>
<path d="M0 0 C4 1 4 1 4 1 Z " fill="#BF9A9A" transform="translate(458,356)"/>
<path d="M0 0 C4 1 4 1 4 1 Z " fill="#BF9A9A" transform="translate(462,355)"/>
<path d="M0 0 C4 1 4 1 4 1 Z " fill="#FF8A5A" transform="translate(469,353)"/>
<path d="M0 0 C4 1 4 1 4 1 Z " fill="#256AE9" transform="translate(29,342)"/>
<path d="M0 0 C1 4 1 4 1 4 Z " fill="#0F5FFF" transform="translate(10,326)"/>
<path d="M0 0 C4 1 4 1 4 1 Z " fill="#AFD9D9" transform="translate(443,312)"/>
<path d="M0 0 C4 1 4 1 4 1 Z " fill="#FFD9D9" transform="translate(448,311)"/>
<path d="M0 0 C4 1 4 1 4 1 Z " fill="#E9D9D9" transform="translate(435,290)"/>
<path d="M0 0 C4 1 4 1 4 1 Z " fill="#BF9AD9" transform="translate(275,286)"/>
<path d="M0 0 C4 1 4 1 4 1 Z " fill="#AFAF9A" transform="translate(279,285)"/>
<path d="M0 0 C4 1 4 1 4 1 Z " fill="#D99A9A" transform="translate(313,284)"/>
<path d="M0 0 C1 4 1 4 1 4 Z " fill="#256AEF" transform="translate(17,268)"/>
<path d="M0 0 C4 1 4 1 4 1 Z " fill="#B9B9B9" transform="translate(137,266)"/>
<path d="M0 0 C4 1 4 1 4 1 Z " fill="#9A9A9A" transform="translate(198,265)"/>
<path d="M0 0 C1 4 1 4 1 4 Z " fill="#256AEF" transform="translate(19,259)"/>
<path d="M0 0 C1 4 1 4 1 4 Z " fill="#2A94FF" transform="translate(20,255)"/>
<path d="M0 0 C1 4 1 4 1 4 Z " fill="#0F5FFF" transform="translate(22,248)"/>
<path d="M0 0 C4 1 4 1 4 1 Z " fill="#258AE9" transform="translate(62,219)"/>
<path d="M0 0 C3 1 3 1 3 1 Z " fill="#FF8D71" transform="translate(439,362)"/>
<path d="M0 0 C3 1 3 1 3 1 Z " fill="#BFA2A2" transform="translate(169,360)"/>
<path d="M0 0 C3 1 3 1 3 1 Z " fill="#FFC671" transform="translate(451,358)"/>
<path d="M0 0 C3 1 3 1 3 1 Z " fill="#FFE9BF" transform="translate(162,358)"/>
<path d="M0 0 C3 1 3 1 3 1 Z " fill="#E2CDCD" transform="translate(155,356)"/>
<path d="M0 0 C3 1 3 1 3 1 Z " fill="#FFE9BF" transform="translate(152,355)"/>
<path d="M0 0 C3 1 3 1 3 1 Z " fill="#BFA28D" transform="translate(466,354)"/>
<path d="M0 0 C3 1 3 1 3 1 Z " fill="#FFBF94" transform="translate(473,352)"/>
<path d="M0 0 C3 1 3 1 3 1 Z " fill="#FFFF7F" transform="translate(140,351)"/>
<path d="M0 0 C0.33 0.66 0.66 1.32 1 2 C0.34 1.67 -0.32 1.34 -1 1 C-0.67 0.67 -0.34 0.34 0 0 Z " fill="#FFAAAA" transform="translate(486,347)"/>
<path d="" fill="#E2C69B" transform="translate(0,0)"/>
<path d="M0 0 C3 1 3 1 3 1 Z " fill="#0038AA" transform="translate(74,343)"/>
<path d="M0 0 C3 1 3 1 3 1 Z " fill="#3163E2" transform="translate(26,341)"/>
<path d="M0 0 C3 1 3 1 3 1 Z " fill="#15D4FF" transform="translate(20,339)"/>
<path d="M0 0 C0.66 0.66 1.32 1.32 2 2 C1.34 2 0.68 2 0 2 C0 1.34 0 0.68 0 0 Z " fill="#1C71FF" transform="translate(14,334)"/>
<path d="M0 0 C3 1 3 1 3 1 Z " fill="#E9D4D4" transform="translate(479,327)"/>
<path d="" fill="#D4BFBF" transform="translate(0,0)"/>
<path d="M0 0 C3 1 3 1 3 1 Z " fill="#8D7171" transform="translate(336,298)"/>
<path d="M0 0 C3 1 3 1 3 1 Z " fill="#E9E994" transform="translate(340,297)"/>
<path d="M0 0 C3 1 3 1 3 1 Z " fill="#E9E9BF" transform="translate(343,296)"/>
<path d="M0 0 C3 1 3 1 3 1 Z " fill="#BFBFA9" transform="translate(346,295)"/>
<path d="M0 0 C3 1 3 1 3 1 Z " fill="#E9A9A9" transform="translate(349,294)"/>
<path d="M0 0 C3 1 3 1 3 1 Z " fill="#8D8D71" transform="translate(428,292)"/>
<path d="" fill="#D47F7F" transform="translate(0,0)"/>
<path d="M0 0 C3 1 3 1 3 1 Z " fill="#8D7171" transform="translate(376,282)"/>
<path d="M0 0 C3 1 3 1 3 1 Z " fill="#CD7863" transform="translate(379,281)"/>
<path d="M0 0 C3 1 3 1 3 1 Z " fill="#94946A" transform="translate(392,280)"/>
<path d="M0 0 C3 1 3 1 3 1 Z " fill="#E28D71" transform="translate(205,267)"/>
<path d="M0 0 C3 1 3 1 3 1 Z " fill="#E28D8D" transform="translate(202,266)"/>
<path d="M0 0 C3 1 3 1 3 1 Z " fill="#FFE28D" transform="translate(167,265)"/>
<path d="" fill="#157FFF" transform="translate(0,0)"/>
<path d="" fill="#159BCD" transform="translate(0,0)"/>
<path d="" fill="#1C63FF" transform="translate(0,0)"/>
<path d="" fill="#1C8DFF" transform="translate(0,0)"/>
<path d="M0 0 C3 1 3 1 3 1 Z " fill="#1CE2FF" transform="translate(92,229)"/>
<path d="M0 0 C3 1 3 1 3 1 Z " fill="#3FA9FF" transform="translate(79,224)"/>
<path d="M0 0 C3 1 3 1 3 1 Z " fill="#6AA9FF" transform="translate(76,223)"/>
<path d="M0 0 C3 1 3 1 3 1 Z " fill="#3163E2" transform="translate(73,222)"/>
<path d="M0 0 C3 1 3 1 3 1 Z " fill="#3871FF" transform="translate(70,221)"/>
<path d="M0 0 C3 1 3 1 3 1 Z " fill="#3FA9FF" transform="translate(41,218)"/>
<path d="M0 0 C2 1 2 1 2 1 Z " fill="#FFAAAA" transform="translate(442,361)"/>
<path d="M0 0 C2 1 2 1 2 1 Z " fill="#D4AAAA" transform="translate(445,360)"/>
<path d="M0 0 C2 1 2 1 2 1 Z " fill="#FFD4D4" transform="translate(146,353)"/>
<path d="M0 0 C2 1 2 1 2 1 Z " fill="#D4D4AA" transform="translate(480,350)"/>
<path d="M0 0 C2 1 2 1 2 1 Z " fill="#FFD4AA" transform="translate(138,350)"/>
<path d="M0 0 C2 1 2 1 2 1 Z " fill="#D4AAAA" transform="translate(133,348)"/>
<path d="M0 0 C2 1 2 1 2 1 Z " fill="#FFD4D4" transform="translate(128,346)"/>
<path d="" fill="#BFBFBF" transform="translate(0,0)"/>
<path d="M0 0 C2 1 2 1 2 1 Z " fill="#0055AA" transform="translate(77,342)"/>
<path d="M0 0 C2 1 2 1 2 1 Z " fill="#FFBF94" transform="translate(109,337)"/>
<path d="M0 0 C2 1 2 1 2 1 Z " fill="#FFFFD4" transform="translate(104,335)"/>
<path d="" fill="#2A94FF" transform="translate(0,0)"/>
<path d="M0 0 C2 1 2 1 2 1 Z " fill="#FF9494" transform="translate(482,326)"/>
<path d="" fill="#FF7F7F" transform="translate(0,0)"/>
<path d="" fill="#FFD4D4" transform="translate(0,0)"/>
<path d="M0 0 C2 1 2 1 2 1 Z " fill="#CC997F" transform="translate(360,315)"/>
<path d="M0 0 C2 1 2 1 2 1 Z " fill="#BFBF7F" transform="translate(368,311)"/>
<path d="M0 0 C2 1 2 1 2 1 Z " fill="#D4D4D4" transform="translate(476,309)"/>
<path d="M0 0 C2 1 2 1 2 1 Z " fill="#D4D4D4" transform="translate(398,306)"/>
<path d="M0 0 C2 1 2 1 2 1 Z " fill="#D4D4D4" transform="translate(403,304)"/>
<path d="" fill="#BFBFBF" transform="translate(0,0)"/>
<path d="M0 0 C2 1 2 1 2 1 Z " fill="#FFBF7F" transform="translate(392,296)"/>
<path d="" fill="#BFBFBF" transform="translate(0,0)"/>
<path d="M0 0 C2 1 2 1 2 1 Z " fill="#FFD4D4" transform="translate(426,293)"/>
<path d="M0 0 C2 1 2 1 2 1 Z " fill="#DFDFDF" transform="translate(445,290)"/>
<path d="M0 0 C2 1 2 1 2 1 Z " fill="#D4D4D4" transform="translate(317,285)"/>
<path d="M0 0 C2 1 2 1 2 1 Z " fill="#BFBF94" transform="translate(372,284)"/>
<path d="M0 0 C2 1 2 1 2 1 Z " fill="#D4D4D4" transform="translate(374,283)"/>
<path d="M0 0 C2 1 2 1 2 1 Z " fill="#FF9494" transform="translate(210,269)"/>
<path d="M0 0 C2 1 2 1 2 1 Z " fill="#D4D4D4" transform="translate(208,268)"/>
<path d="" fill="#D42A2A" transform="translate(0,0)"/>
<path d="" fill="#FF003F" transform="translate(0,0)"/>
<path d="" fill="#FF0000" transform="translate(0,0)"/>
<path d="" fill="#00BFFF" transform="translate(0,0)"/>
<path d="" fill="#2A2AFF" transform="translate(0,0)"/>
<path d="" fill="#2A55FF" transform="translate(0,0)"/>
<path d="" fill="#1F7FDF" transform="translate(0,0)"/>
<path d="" fill="#1F7FDF" transform="translate(0,0)"/>
<path d="M0 0 C2 1 2 1 2 1 Z " fill="#7FBFFF" transform="translate(109,237)"/>
<path d="M0 0 C2 1 2 1 2 1 Z " fill="#7FBFFF" transform="translate(107,236)"/>
<path d="" fill="#2AD4FF" transform="translate(0,0)"/>
<path d="" fill="#2A94FF" transform="translate(0,0)"/>
<path d="" fill="#2AD4FF" transform="translate(0,0)"/>
<path d="M0 0 C2 1 2 1 2 1 Z " fill="#6A6ABF" transform="translate(97,231)"/>
<path d="M0 0 C2 1 2 1 2 1 Z " fill="#6A6AFF" transform="translate(95,230)"/>
<path d="" fill="#00BFFF" transform="translate(0,0)"/>
<path d="M0 0 C2 1 2 1 2 1 Z " fill="#6AD4FF" transform="translate(90,228)"/>
<path d="" fill="#2A55FF" transform="translate(0,0)"/>
<path d="M0 0 C2 1 2 1 2 1 Z " fill="#6AD4FF" transform="translate(85,226)"/>
<path d="" fill="#FF002A" transform="translate(0,0)"/>
<path d="" fill="#7F3F3F" transform="translate(0,0)"/>
<path d="" fill="#FF003F" transform="translate(0,0)"/>
<path d="" fill="#FF003F" transform="translate(0,0)"/>
<path d="M0 0 C2 1 2 1 2 1 Z " fill="#BF6A6A" transform="translate(293,109)"/>
<path d="M0 0 C2 1 2 1 2 1 Z " fill="#FF7F7F" transform="translate(295,108)"/>
<path d="M0 0 C2 1 2 1 2 1 Z " fill="#D46A6A" transform="translate(297,107)"/>
<path d="" fill="#FFAAAA" transform="translate(0,0)"/>
<path d="" fill="#AAAAAA" transform="translate(0,0)"/>
<path d="" fill="#0055FF" transform="translate(0,0)"/>
<path d="" fill="#0055FF" transform="translate(0,0)"/>
<path d="" fill="#0055AA" transform="translate(0,0)"/>
<path d="" fill="#007FFF" transform="translate(0,0)"/>
<path d="" fill="#007FFF" transform="translate(0,0)"/>
<path d="" fill="#FFFFFF" transform="translate(0,0)"/>
<path d="" fill="#7F7F7F" transform="translate(0,0)"/>
<path d="" fill="#AAAAAA" transform="translate(0,0)"/>
<path d="" fill="#FFAAAA" transform="translate(0,0)"/>
<path d="" fill="#FF7F7F" transform="translate(0,0)"/>
<path d="" fill="#FFFFFF" transform="translate(0,0)"/>
<path d="" fill="#AAAA55" transform="translate(0,0)"/>
<path d="" fill="#AAAAAA" transform="translate(0,0)"/>
<path d="" fill="#FF7F7F" transform="translate(0,0)"/>
<path d="" fill="#FFFF7F" transform="translate(0,0)"/>
<path d="" fill="#FF7F7F" transform="translate(0,0)"/>
<path d="" fill="#7F7F7F" transform="translate(0,0)"/>
<path d="" fill="#FF7F7F" transform="translate(0,0)"/>
<path d="" fill="#AAAAAA" transform="translate(0,0)"/>
<path d="" fill="#FFFFFF" transform="translate(0,0)"/>
<path d="" fill="#FFFFFF" transform="translate(0,0)"/>
<path d="" fill="#FFAAAA" transform="translate(0,0)"/>
<path d="" fill="#AA5555" transform="translate(0,0)"/>
<path d="" fill="#BF7F7F" transform="translate(0,0)"/>
<path d="" fill="#FFFFFF" transform="translate(0,0)"/>
<path d="" fill="#FFAAAA" transform="translate(0,0)"/>
<path d="" fill="#FFFFFF" transform="translate(0,0)"/>
<path d="" fill="#FFFFFF" transform="translate(0,0)"/>
<path d="" fill="#FF7F7F" transform="translate(0,0)"/>
<path d="" fill="#BFBF7F" transform="translate(0,0)"/>
<path d="" fill="#FFFFFF" transform="translate(0,0)"/>
<path d="" fill="#AAAAAA" transform="translate(0,0)"/>
<path d="" fill="#7F0000" transform="translate(0,0)"/>
<path d="" fill="#FF007F" transform="translate(0,0)"/>
<path d="" fill="#FF0055" transform="translate(0,0)"/>
<path d="" fill="#FF0000" transform="translate(0,0)"/>
<path d="" fill="#FF007F" transform="translate(0,0)"/>
<path d="" fill="#000000" transform="translate(0,0)"/>
<path d="" fill="#FFFFAA" transform="translate(0,0)"/>
<path d="" fill="#FF0055" transform="translate(0,0)"/>
<path d="" fill="#FFFFFF" transform="translate(0,0)"/>
<path d="" fill="#FF007F" transform="translate(0,0)"/>
<path d="" fill="#BF003F" transform="translate(0,0)"/>
<path d="" fill="#AA5555" transform="translate(0,0)"/>
<path d="" fill="#FF007F" transform="translate(0,0)"/>
<path d="" fill="#007FFF" transform="translate(0,0)"/>
<path d="" fill="#007FFF" transform="translate(0,0)"/>
<path d="" fill="#5555AA" transform="translate(0,0)"/>
<path d="" fill="#7F7FFF" transform="translate(0,0)"/>
<path d="" fill="#0055AA" transform="translate(0,0)"/>
<path d="" fill="#55AAFF" transform="translate(0,0)"/>
<path d="" fill="#55AAFF" transform="translate(0,0)"/>
<path d="" fill="#55AAFF" transform="translate(0,0)"/>
<path d="" fill="#FF5555" transform="translate(0,0)"/>
<path d="" fill="#FF7F7F" transform="translate(0,0)"/>
<path d="" fill="#AA5555" transform="translate(0,0)"/>
<path d="" fill="#FF0055" transform="translate(0,0)"/>
<path d="" fill="#AA5555" transform="translate(0,0)"/>
<path d="" fill="#FF0000" transform="translate(0,0)"/>
<path d="" fill="#FF0000" transform="translate(0,0)"/>
<path d="" fill="#FF0000" transform="translate(0,0)"/>
</svg>
